G04 #@! TF.GenerationSoftware,KiCad,Pcbnew,(5.0.0)*
G04 #@! TF.CreationDate,2018-07-29T19:07:46+01:00*
G04 #@! TF.ProjectId,nanoAlt_Alpha,6E616E6F416C745F416C7068612E6B69,rev?*
G04 #@! TF.SameCoordinates,Original*
G04 #@! TF.FileFunction,Copper,L1,Top,Signal*
G04 #@! TF.FilePolarity,Positive*
%FSLAX46Y46*%
G04 Gerber Fmt 4.6, Leading zero omitted, Abs format (unit mm)*
G04 Created by KiCad (PCBNEW (5.0.0)) date 07/29/18 19:07:46*
%MOMM*%
%LPD*%
G01*
G04 APERTURE LIST*
%ADD10C,0.100000*%
%ADD11C,0.150000*%
%ADD12C,0.300000*%
%ADD13C,0.400000*%
G04 #@! TA.AperFunction,ViaPad*
%ADD14C,0.600000*%
G04 #@! TD*
G04 #@! TA.AperFunction,SMDPad,CuDef*
%ADD15R,1.000000X1.000000*%
G04 #@! TD*
G04 #@! TA.AperFunction,BGAPad,CuDef*
%ADD16C,0.300000*%
G04 #@! TD*
G04 #@! TA.AperFunction,SMDPad,CuDef*
%ADD17R,0.600000X0.600000*%
G04 #@! TD*
G04 #@! TA.AperFunction,ComponentPad*
%ADD18C,3.000000*%
G04 #@! TD*
G04 #@! TA.AperFunction,SMDPad,CuDef*
%ADD19R,0.800000X0.800000*%
G04 #@! TD*
G04 #@! TA.AperFunction,BGAPad,CuDef*
%ADD20C,0.800000*%
G04 #@! TD*
G04 #@! TA.AperFunction,ViaPad*
%ADD21C,0.330200*%
G04 #@! TD*
G04 #@! TA.AperFunction,ViaPad*
%ADD22C,0.400000*%
G04 #@! TD*
G04 #@! TA.AperFunction,ViaPad*
%ADD23C,0.355600*%
G04 #@! TD*
G04 #@! TA.AperFunction,Conductor*
%ADD24C,0.127000*%
G04 #@! TD*
G04 #@! TA.AperFunction,Conductor*
%ADD25C,0.152400*%
G04 #@! TD*
G04 APERTURE END LIST*
D10*
D11*
X177002200Y-166007200D02*
X177002200Y-198007200D01*
X285002200Y-198007200D01*
X285002200Y-166007200D01*
X177002200Y-166007200D01*
D10*
D11*
X10000000Y-10000000D02*
X10000000Y-200007200D01*
X287002200Y-200007200D01*
X287002200Y-10000000D01*
X10000000Y-10000000D01*
D10*
D11*
X12000000Y-12000000D02*
X12000000Y-198007200D01*
X285002200Y-198007200D01*
X285002200Y-12000000D01*
X12000000Y-12000000D01*
D10*
D11*
X60000000Y-12000000D02*
X60000000Y-10000000D01*
D10*
D11*
X110000000Y-12000000D02*
X110000000Y-10000000D01*
D10*
D11*
X160000000Y-12000000D02*
X160000000Y-10000000D01*
D10*
D11*
X210000000Y-12000000D02*
X210000000Y-10000000D01*
D10*
D11*
X260000000Y-12000000D02*
X260000000Y-10000000D01*
D10*
D11*
X36065476Y-11588095D02*
X35322619Y-11588095D01*
X35694047Y-11588095D02*
X35694047Y-10288095D01*
X35570238Y-10473809D01*
X35446428Y-10597619D01*
X35322619Y-10659523D01*
D10*
D11*
X85322619Y-10411904D02*
X85384523Y-10350000D01*
X85508333Y-10288095D01*
X85817857Y-10288095D01*
X85941666Y-10350000D01*
X86003571Y-10411904D01*
X86065476Y-10535714D01*
X86065476Y-10659523D01*
X86003571Y-10845238D01*
X85260714Y-11588095D01*
X86065476Y-11588095D01*
D10*
D11*
X135260714Y-10288095D02*
X136065476Y-10288095D01*
X135632142Y-10783333D01*
X135817857Y-10783333D01*
X135941666Y-10845238D01*
X136003571Y-10907142D01*
X136065476Y-11030952D01*
X136065476Y-11340476D01*
X136003571Y-11464285D01*
X135941666Y-11526190D01*
X135817857Y-11588095D01*
X135446428Y-11588095D01*
X135322619Y-11526190D01*
X135260714Y-11464285D01*
D10*
D11*
X185941666Y-10721428D02*
X185941666Y-11588095D01*
X185632142Y-10226190D02*
X185322619Y-11154761D01*
X186127380Y-11154761D01*
D10*
D11*
X236003571Y-10288095D02*
X235384523Y-10288095D01*
X235322619Y-10907142D01*
X235384523Y-10845238D01*
X235508333Y-10783333D01*
X235817857Y-10783333D01*
X235941666Y-10845238D01*
X236003571Y-10907142D01*
X236065476Y-11030952D01*
X236065476Y-11340476D01*
X236003571Y-11464285D01*
X235941666Y-11526190D01*
X235817857Y-11588095D01*
X235508333Y-11588095D01*
X235384523Y-11526190D01*
X235322619Y-11464285D01*
D10*
D11*
X285941666Y-10288095D02*
X285694047Y-10288095D01*
X285570238Y-10350000D01*
X285508333Y-10411904D01*
X285384523Y-10597619D01*
X285322619Y-10845238D01*
X285322619Y-11340476D01*
X285384523Y-11464285D01*
X285446428Y-11526190D01*
X285570238Y-11588095D01*
X285817857Y-11588095D01*
X285941666Y-11526190D01*
X286003571Y-11464285D01*
X286065476Y-11340476D01*
X286065476Y-11030952D01*
X286003571Y-10907142D01*
X285941666Y-10845238D01*
X285817857Y-10783333D01*
X285570238Y-10783333D01*
X285446428Y-10845238D01*
X285384523Y-10907142D01*
X285322619Y-11030952D01*
D10*
D11*
X60000000Y-198007200D02*
X60000000Y-200007200D01*
D10*
D11*
X110000000Y-198007200D02*
X110000000Y-200007200D01*
D10*
D11*
X160000000Y-198007200D02*
X160000000Y-200007200D01*
D10*
D11*
X210000000Y-198007200D02*
X210000000Y-200007200D01*
D10*
D11*
X260000000Y-198007200D02*
X260000000Y-200007200D01*
D10*
D11*
X36065476Y-199595295D02*
X35322619Y-199595295D01*
X35694047Y-199595295D02*
X35694047Y-198295295D01*
X35570238Y-198481009D01*
X35446428Y-198604819D01*
X35322619Y-198666723D01*
D10*
D11*
X85322619Y-198419104D02*
X85384523Y-198357200D01*
X85508333Y-198295295D01*
X85817857Y-198295295D01*
X85941666Y-198357200D01*
X86003571Y-198419104D01*
X86065476Y-198542914D01*
X86065476Y-198666723D01*
X86003571Y-198852438D01*
X85260714Y-199595295D01*
X86065476Y-199595295D01*
D10*
D11*
X135260714Y-198295295D02*
X136065476Y-198295295D01*
X135632142Y-198790533D01*
X135817857Y-198790533D01*
X135941666Y-198852438D01*
X136003571Y-198914342D01*
X136065476Y-199038152D01*
X136065476Y-199347676D01*
X136003571Y-199471485D01*
X135941666Y-199533390D01*
X135817857Y-199595295D01*
X135446428Y-199595295D01*
X135322619Y-199533390D01*
X135260714Y-199471485D01*
D10*
D11*
X185941666Y-198728628D02*
X185941666Y-199595295D01*
X185632142Y-198233390D02*
X185322619Y-199161961D01*
X186127380Y-199161961D01*
D10*
D11*
X236003571Y-198295295D02*
X235384523Y-198295295D01*
X235322619Y-198914342D01*
X235384523Y-198852438D01*
X235508333Y-198790533D01*
X235817857Y-198790533D01*
X235941666Y-198852438D01*
X236003571Y-198914342D01*
X236065476Y-199038152D01*
X236065476Y-199347676D01*
X236003571Y-199471485D01*
X235941666Y-199533390D01*
X235817857Y-199595295D01*
X235508333Y-199595295D01*
X235384523Y-199533390D01*
X235322619Y-199471485D01*
D10*
D11*
X285941666Y-198295295D02*
X285694047Y-198295295D01*
X285570238Y-198357200D01*
X285508333Y-198419104D01*
X285384523Y-198604819D01*
X285322619Y-198852438D01*
X285322619Y-199347676D01*
X285384523Y-199471485D01*
X285446428Y-199533390D01*
X285570238Y-199595295D01*
X285817857Y-199595295D01*
X285941666Y-199533390D01*
X286003571Y-199471485D01*
X286065476Y-199347676D01*
X286065476Y-199038152D01*
X286003571Y-198914342D01*
X285941666Y-198852438D01*
X285817857Y-198790533D01*
X285570238Y-198790533D01*
X285446428Y-198852438D01*
X285384523Y-198914342D01*
X285322619Y-199038152D01*
D10*
D11*
X10000000Y-60000000D02*
X12000000Y-60000000D01*
D10*
D11*
X10000000Y-110000000D02*
X12000000Y-110000000D01*
D10*
D11*
X10000000Y-160000000D02*
X12000000Y-160000000D01*
D10*
D11*
X10690476Y-35216666D02*
X11309523Y-35216666D01*
X10566666Y-35588095D02*
X11000000Y-34288095D01*
X11433333Y-35588095D01*
D10*
D11*
X11092857Y-84907142D02*
X11278571Y-84969047D01*
X11340476Y-85030952D01*
X11402380Y-85154761D01*
X11402380Y-85340476D01*
X11340476Y-85464285D01*
X11278571Y-85526190D01*
X11154761Y-85588095D01*
X10659523Y-85588095D01*
X10659523Y-84288095D01*
X11092857Y-84288095D01*
X11216666Y-84350000D01*
X11278571Y-84411904D01*
X11340476Y-84535714D01*
X11340476Y-84659523D01*
X11278571Y-84783333D01*
X11216666Y-84845238D01*
X11092857Y-84907142D01*
X10659523Y-84907142D01*
D10*
D11*
X11402380Y-135464285D02*
X11340476Y-135526190D01*
X11154761Y-135588095D01*
X11030952Y-135588095D01*
X10845238Y-135526190D01*
X10721428Y-135402380D01*
X10659523Y-135278571D01*
X10597619Y-135030952D01*
X10597619Y-134845238D01*
X10659523Y-134597619D01*
X10721428Y-134473809D01*
X10845238Y-134350000D01*
X11030952Y-134288095D01*
X11154761Y-134288095D01*
X11340476Y-134350000D01*
X11402380Y-134411904D01*
D10*
D11*
X10659523Y-185588095D02*
X10659523Y-184288095D01*
X10969047Y-184288095D01*
X11154761Y-184350000D01*
X11278571Y-184473809D01*
X11340476Y-184597619D01*
X11402380Y-184845238D01*
X11402380Y-185030952D01*
X11340476Y-185278571D01*
X11278571Y-185402380D01*
X11154761Y-185526190D01*
X10969047Y-185588095D01*
X10659523Y-185588095D01*
D10*
D11*
X287002200Y-60000000D02*
X285002200Y-60000000D01*
D10*
D11*
X287002200Y-110000000D02*
X285002200Y-110000000D01*
D10*
D11*
X287002200Y-160000000D02*
X285002200Y-160000000D01*
D10*
D11*
X285692676Y-35216666D02*
X286311723Y-35216666D01*
X285568866Y-35588095D02*
X286002200Y-34288095D01*
X286435533Y-35588095D01*
D10*
D11*
X286095057Y-84907142D02*
X286280771Y-84969047D01*
X286342676Y-85030952D01*
X286404580Y-85154761D01*
X286404580Y-85340476D01*
X286342676Y-85464285D01*
X286280771Y-85526190D01*
X286156961Y-85588095D01*
X285661723Y-85588095D01*
X285661723Y-84288095D01*
X286095057Y-84288095D01*
X286218866Y-84350000D01*
X286280771Y-84411904D01*
X286342676Y-84535714D01*
X286342676Y-84659523D01*
X286280771Y-84783333D01*
X286218866Y-84845238D01*
X286095057Y-84907142D01*
X285661723Y-84907142D01*
D10*
D11*
X286404580Y-135464285D02*
X286342676Y-135526190D01*
X286156961Y-135588095D01*
X286033152Y-135588095D01*
X285847438Y-135526190D01*
X285723628Y-135402380D01*
X285661723Y-135278571D01*
X285599819Y-135030952D01*
X285599819Y-134845238D01*
X285661723Y-134597619D01*
X285723628Y-134473809D01*
X285847438Y-134350000D01*
X286033152Y-134288095D01*
X286156961Y-134288095D01*
X286342676Y-134350000D01*
X286404580Y-134411904D01*
D10*
D11*
X285661723Y-185588095D02*
X285661723Y-184288095D01*
X285971247Y-184288095D01*
X286156961Y-184350000D01*
X286280771Y-184473809D01*
X286342676Y-184597619D01*
X286404580Y-184845238D01*
X286404580Y-185030952D01*
X286342676Y-185278571D01*
X286280771Y-185402380D01*
X286156961Y-185526190D01*
X285971247Y-185588095D01*
X285661723Y-185588095D01*
D10*
D11*
X200434342Y-193785771D02*
X200434342Y-192285771D01*
X200791485Y-192285771D01*
X201005771Y-192357200D01*
X201148628Y-192500057D01*
X201220057Y-192642914D01*
X201291485Y-192928628D01*
X201291485Y-193142914D01*
X201220057Y-193428628D01*
X201148628Y-193571485D01*
X201005771Y-193714342D01*
X200791485Y-193785771D01*
X200434342Y-193785771D01*
X202577200Y-193785771D02*
X202577200Y-193000057D01*
X202505771Y-192857200D01*
X202362914Y-192785771D01*
X202077200Y-192785771D01*
X201934342Y-192857200D01*
X202577200Y-193714342D02*
X202434342Y-193785771D01*
X202077200Y-193785771D01*
X201934342Y-193714342D01*
X201862914Y-193571485D01*
X201862914Y-193428628D01*
X201934342Y-193285771D01*
X202077200Y-193214342D01*
X202434342Y-193214342D01*
X202577200Y-193142914D01*
X203077200Y-192785771D02*
X203648628Y-192785771D01*
X203291485Y-192285771D02*
X203291485Y-193571485D01*
X203362914Y-193714342D01*
X203505771Y-193785771D01*
X203648628Y-193785771D01*
X204720057Y-193714342D02*
X204577200Y-193785771D01*
X204291485Y-193785771D01*
X204148628Y-193714342D01*
X204077200Y-193571485D01*
X204077200Y-193000057D01*
X204148628Y-192857200D01*
X204291485Y-192785771D01*
X204577200Y-192785771D01*
X204720057Y-192857200D01*
X204791485Y-193000057D01*
X204791485Y-193142914D01*
X204077200Y-193285771D01*
X205434342Y-193642914D02*
X205505771Y-193714342D01*
X205434342Y-193785771D01*
X205362914Y-193714342D01*
X205434342Y-193642914D01*
X205434342Y-193785771D01*
X205434342Y-192857200D02*
X205505771Y-192928628D01*
X205434342Y-193000057D01*
X205362914Y-192928628D01*
X205434342Y-192857200D01*
X205434342Y-193000057D01*
D10*
D11*
X177002200Y-194507200D02*
X285002200Y-194507200D01*
D10*
D11*
X178434342Y-196585771D02*
X178434342Y-195085771D01*
X179291485Y-196585771D02*
X178648628Y-195728628D01*
X179291485Y-195085771D02*
X178434342Y-195942914D01*
X179934342Y-196585771D02*
X179934342Y-195585771D01*
X179934342Y-195085771D02*
X179862914Y-195157200D01*
X179934342Y-195228628D01*
X180005771Y-195157200D01*
X179934342Y-195085771D01*
X179934342Y-195228628D01*
X181505771Y-196442914D02*
X181434342Y-196514342D01*
X181220057Y-196585771D01*
X181077200Y-196585771D01*
X180862914Y-196514342D01*
X180720057Y-196371485D01*
X180648628Y-196228628D01*
X180577200Y-195942914D01*
X180577200Y-195728628D01*
X180648628Y-195442914D01*
X180720057Y-195300057D01*
X180862914Y-195157200D01*
X181077200Y-195085771D01*
X181220057Y-195085771D01*
X181434342Y-195157200D01*
X181505771Y-195228628D01*
X182791485Y-196585771D02*
X182791485Y-195800057D01*
X182720057Y-195657200D01*
X182577200Y-195585771D01*
X182291485Y-195585771D01*
X182148628Y-195657200D01*
X182791485Y-196514342D02*
X182648628Y-196585771D01*
X182291485Y-196585771D01*
X182148628Y-196514342D01*
X182077200Y-196371485D01*
X182077200Y-196228628D01*
X182148628Y-196085771D01*
X182291485Y-196014342D01*
X182648628Y-196014342D01*
X182791485Y-195942914D01*
X184148628Y-196585771D02*
X184148628Y-195085771D01*
X184148628Y-196514342D02*
X184005771Y-196585771D01*
X183720057Y-196585771D01*
X183577200Y-196514342D01*
X183505771Y-196442914D01*
X183434342Y-196300057D01*
X183434342Y-195871485D01*
X183505771Y-195728628D01*
X183577200Y-195657200D01*
X183720057Y-195585771D01*
X184005771Y-195585771D01*
X184148628Y-195657200D01*
X186005771Y-195800057D02*
X186505771Y-195800057D01*
X186720057Y-196585771D02*
X186005771Y-196585771D01*
X186005771Y-195085771D01*
X186720057Y-195085771D01*
X187362914Y-196442914D02*
X187434342Y-196514342D01*
X187362914Y-196585771D01*
X187291485Y-196514342D01*
X187362914Y-196442914D01*
X187362914Y-196585771D01*
X188077200Y-196585771D02*
X188077200Y-195085771D01*
X188434342Y-195085771D01*
X188648628Y-195157200D01*
X188791485Y-195300057D01*
X188862914Y-195442914D01*
X188934342Y-195728628D01*
X188934342Y-195942914D01*
X188862914Y-196228628D01*
X188791485Y-196371485D01*
X188648628Y-196514342D01*
X188434342Y-196585771D01*
X188077200Y-196585771D01*
X189577200Y-196442914D02*
X189648628Y-196514342D01*
X189577200Y-196585771D01*
X189505771Y-196514342D01*
X189577200Y-196442914D01*
X189577200Y-196585771D01*
X190220057Y-196157200D02*
X190934342Y-196157200D01*
X190077200Y-196585771D02*
X190577200Y-195085771D01*
X191077200Y-196585771D01*
X191577200Y-196442914D02*
X191648628Y-196514342D01*
X191577200Y-196585771D01*
X191505771Y-196514342D01*
X191577200Y-196442914D01*
X191577200Y-196585771D01*
X194577200Y-196585771D02*
X194577200Y-195085771D01*
X194720057Y-196014342D02*
X195148628Y-196585771D01*
X195148628Y-195585771D02*
X194577200Y-196157200D01*
X195791485Y-196585771D02*
X195791485Y-195585771D01*
X195791485Y-195085771D02*
X195720057Y-195157200D01*
X195791485Y-195228628D01*
X195862914Y-195157200D01*
X195791485Y-195085771D01*
X195791485Y-195228628D01*
X197148628Y-196514342D02*
X197005771Y-196585771D01*
X196720057Y-196585771D01*
X196577200Y-196514342D01*
X196505771Y-196442914D01*
X196434342Y-196300057D01*
X196434342Y-195871485D01*
X196505771Y-195728628D01*
X196577200Y-195657200D01*
X196720057Y-195585771D01*
X197005771Y-195585771D01*
X197148628Y-195657200D01*
X198434342Y-196585771D02*
X198434342Y-195800057D01*
X198362914Y-195657200D01*
X198220057Y-195585771D01*
X197934342Y-195585771D01*
X197791485Y-195657200D01*
X198434342Y-196514342D02*
X198291485Y-196585771D01*
X197934342Y-196585771D01*
X197791485Y-196514342D01*
X197720057Y-196371485D01*
X197720057Y-196228628D01*
X197791485Y-196085771D01*
X197934342Y-196014342D01*
X198291485Y-196014342D01*
X198434342Y-195942914D01*
X199791485Y-196585771D02*
X199791485Y-195085771D01*
X199791485Y-196514342D02*
X199648628Y-196585771D01*
X199362914Y-196585771D01*
X199220057Y-196514342D01*
X199148628Y-196442914D01*
X199077200Y-196300057D01*
X199077200Y-195871485D01*
X199148628Y-195728628D01*
X199220057Y-195657200D01*
X199362914Y-195585771D01*
X199648628Y-195585771D01*
X199791485Y-195657200D01*
X202077200Y-197157200D02*
X202005771Y-197085771D01*
X201862914Y-196871485D01*
X201791485Y-196728628D01*
X201720057Y-196514342D01*
X201648628Y-196157200D01*
X201648628Y-195871485D01*
X201720057Y-195514342D01*
X201791485Y-195300057D01*
X201862914Y-195157200D01*
X202005771Y-194942914D01*
X202077200Y-194871485D01*
X203362914Y-195085771D02*
X202648628Y-195085771D01*
X202577200Y-195800057D01*
X202648628Y-195728628D01*
X202791485Y-195657200D01*
X203148628Y-195657200D01*
X203291485Y-195728628D01*
X203362914Y-195800057D01*
X203434342Y-195942914D01*
X203434342Y-196300057D01*
X203362914Y-196442914D01*
X203291485Y-196514342D01*
X203148628Y-196585771D01*
X202791485Y-196585771D01*
X202648628Y-196514342D01*
X202577200Y-196442914D01*
X204077200Y-196442914D02*
X204148628Y-196514342D01*
X204077200Y-196585771D01*
X204005771Y-196514342D01*
X204077200Y-196442914D01*
X204077200Y-196585771D01*
X205077200Y-195085771D02*
X205220057Y-195085771D01*
X205362914Y-195157200D01*
X205434342Y-195228628D01*
X205505771Y-195371485D01*
X205577200Y-195657200D01*
X205577200Y-196014342D01*
X205505771Y-196300057D01*
X205434342Y-196442914D01*
X205362914Y-196514342D01*
X205220057Y-196585771D01*
X205077200Y-196585771D01*
X204934342Y-196514342D01*
X204862914Y-196442914D01*
X204791485Y-196300057D01*
X204720057Y-196014342D01*
X204720057Y-195657200D01*
X204791485Y-195371485D01*
X204862914Y-195228628D01*
X204934342Y-195157200D01*
X205077200Y-195085771D01*
X206220057Y-196442914D02*
X206291485Y-196514342D01*
X206220057Y-196585771D01*
X206148628Y-196514342D01*
X206220057Y-196442914D01*
X206220057Y-196585771D01*
X207220057Y-195085771D02*
X207362914Y-195085771D01*
X207505771Y-195157200D01*
X207577200Y-195228628D01*
X207648628Y-195371485D01*
X207720057Y-195657200D01*
X207720057Y-196014342D01*
X207648628Y-196300057D01*
X207577200Y-196442914D01*
X207505771Y-196514342D01*
X207362914Y-196585771D01*
X207220057Y-196585771D01*
X207077200Y-196514342D01*
X207005771Y-196442914D01*
X206934342Y-196300057D01*
X206862914Y-196014342D01*
X206862914Y-195657200D01*
X206934342Y-195371485D01*
X207005771Y-195228628D01*
X207077200Y-195157200D01*
X207220057Y-195085771D01*
X208220057Y-197157200D02*
X208291485Y-197085771D01*
X208434342Y-196871485D01*
X208505771Y-196728628D01*
X208577200Y-196514342D01*
X208648628Y-196157200D01*
X208648628Y-195871485D01*
X208577200Y-195514342D01*
X208505771Y-195300057D01*
X208434342Y-195157200D01*
X208291485Y-194942914D01*
X208220057Y-194871485D01*
D10*
D11*
X177002200Y-191507200D02*
X285002200Y-191507200D01*
D10*
D12*
X264411485Y-193785771D02*
X263911485Y-193071485D01*
X263554342Y-193785771D02*
X263554342Y-192285771D01*
X264125771Y-192285771D01*
X264268628Y-192357200D01*
X264340057Y-192428628D01*
X264411485Y-192571485D01*
X264411485Y-192785771D01*
X264340057Y-192928628D01*
X264268628Y-193000057D01*
X264125771Y-193071485D01*
X263554342Y-193071485D01*
X265625771Y-193714342D02*
X265482914Y-193785771D01*
X265197200Y-193785771D01*
X265054342Y-193714342D01*
X264982914Y-193571485D01*
X264982914Y-193000057D01*
X265054342Y-192857200D01*
X265197200Y-192785771D01*
X265482914Y-192785771D01*
X265625771Y-192857200D01*
X265697200Y-193000057D01*
X265697200Y-193142914D01*
X264982914Y-193285771D01*
X266197200Y-192785771D02*
X266554342Y-193785771D01*
X266911485Y-192785771D01*
X267482914Y-193642914D02*
X267554342Y-193714342D01*
X267482914Y-193785771D01*
X267411485Y-193714342D01*
X267482914Y-193642914D01*
X267482914Y-193785771D01*
X267482914Y-192857200D02*
X267554342Y-192928628D01*
X267482914Y-193000057D01*
X267411485Y-192928628D01*
X267482914Y-192857200D01*
X267482914Y-193000057D01*
D10*
D11*
X178362914Y-193714342D02*
X178577200Y-193785771D01*
X178934342Y-193785771D01*
X179077200Y-193714342D01*
X179148628Y-193642914D01*
X179220057Y-193500057D01*
X179220057Y-193357200D01*
X179148628Y-193214342D01*
X179077200Y-193142914D01*
X178934342Y-193071485D01*
X178648628Y-193000057D01*
X178505771Y-192928628D01*
X178434342Y-192857200D01*
X178362914Y-192714342D01*
X178362914Y-192571485D01*
X178434342Y-192428628D01*
X178505771Y-192357200D01*
X178648628Y-192285771D01*
X179005771Y-192285771D01*
X179220057Y-192357200D01*
X179862914Y-193785771D02*
X179862914Y-192785771D01*
X179862914Y-192285771D02*
X179791485Y-192357200D01*
X179862914Y-192428628D01*
X179934342Y-192357200D01*
X179862914Y-192285771D01*
X179862914Y-192428628D01*
X180434342Y-192785771D02*
X181220057Y-192785771D01*
X180434342Y-193785771D01*
X181220057Y-193785771D01*
X182362914Y-193714342D02*
X182220057Y-193785771D01*
X181934342Y-193785771D01*
X181791485Y-193714342D01*
X181720057Y-193571485D01*
X181720057Y-193000057D01*
X181791485Y-192857200D01*
X181934342Y-192785771D01*
X182220057Y-192785771D01*
X182362914Y-192857200D01*
X182434342Y-193000057D01*
X182434342Y-193142914D01*
X181720057Y-193285771D01*
X183077200Y-193642914D02*
X183148628Y-193714342D01*
X183077200Y-193785771D01*
X183005771Y-193714342D01*
X183077200Y-193642914D01*
X183077200Y-193785771D01*
X183077200Y-192857200D02*
X183148628Y-192928628D01*
X183077200Y-193000057D01*
X183005771Y-192928628D01*
X183077200Y-192857200D01*
X183077200Y-193000057D01*
X184862914Y-193357200D02*
X185577200Y-193357200D01*
X184720057Y-193785771D02*
X185220057Y-192285771D01*
X185720057Y-193785771D01*
X186862914Y-192785771D02*
X186862914Y-193785771D01*
X186505771Y-192214342D02*
X186148628Y-193285771D01*
X187077200Y-193285771D01*
D10*
D11*
X263434342Y-196585771D02*
X263434342Y-195085771D01*
X264791485Y-196585771D02*
X264791485Y-195085771D01*
X264791485Y-196514342D02*
X264648628Y-196585771D01*
X264362914Y-196585771D01*
X264220057Y-196514342D01*
X264148628Y-196442914D01*
X264077200Y-196300057D01*
X264077200Y-195871485D01*
X264148628Y-195728628D01*
X264220057Y-195657200D01*
X264362914Y-195585771D01*
X264648628Y-195585771D01*
X264791485Y-195657200D01*
X265505771Y-196442914D02*
X265577200Y-196514342D01*
X265505771Y-196585771D01*
X265434342Y-196514342D01*
X265505771Y-196442914D01*
X265505771Y-196585771D01*
X265505771Y-195657200D02*
X265577200Y-195728628D01*
X265505771Y-195800057D01*
X265434342Y-195728628D01*
X265505771Y-195657200D01*
X265505771Y-195800057D01*
X268148628Y-196585771D02*
X267291485Y-196585771D01*
X267720057Y-196585771D02*
X267720057Y-195085771D01*
X267577200Y-195300057D01*
X267434342Y-195442914D01*
X267291485Y-195514342D01*
X269862914Y-195014342D02*
X268577200Y-196942914D01*
X271148628Y-196585771D02*
X270291485Y-196585771D01*
X270720057Y-196585771D02*
X270720057Y-195085771D01*
X270577200Y-195300057D01*
X270434342Y-195442914D01*
X270291485Y-195514342D01*
D10*
D11*
X177002200Y-187507200D02*
X285002200Y-187507200D01*
D10*
D13*
X178714580Y-188211961D02*
X179857438Y-188211961D01*
X179036009Y-190211961D02*
X179286009Y-188211961D01*
X180274104Y-190211961D02*
X180440771Y-188878628D01*
X180524104Y-188211961D02*
X180416961Y-188307200D01*
X180500295Y-188402438D01*
X180607438Y-188307200D01*
X180524104Y-188211961D01*
X180500295Y-188402438D01*
X181107438Y-188878628D02*
X181869342Y-188878628D01*
X181476485Y-188211961D02*
X181262200Y-189926247D01*
X181333628Y-190116723D01*
X181512200Y-190211961D01*
X181702676Y-190211961D01*
X182655057Y-190211961D02*
X182476485Y-190116723D01*
X182405057Y-189926247D01*
X182619342Y-188211961D01*
X184190771Y-190116723D02*
X183988390Y-190211961D01*
X183607438Y-190211961D01*
X183428866Y-190116723D01*
X183357438Y-189926247D01*
X183452676Y-189164342D01*
X183571723Y-188973866D01*
X183774104Y-188878628D01*
X184155057Y-188878628D01*
X184333628Y-188973866D01*
X184405057Y-189164342D01*
X184381247Y-189354819D01*
X183405057Y-189545295D01*
X185155057Y-190021485D02*
X185238390Y-190116723D01*
X185131247Y-190211961D01*
X185047914Y-190116723D01*
X185155057Y-190021485D01*
X185131247Y-190211961D01*
X185286009Y-188973866D02*
X185369342Y-189069104D01*
X185262200Y-189164342D01*
X185178866Y-189069104D01*
X185286009Y-188973866D01*
X185262200Y-189164342D01*
D10*
D11*
X178934342Y-185600057D02*
X178434342Y-185600057D01*
X178434342Y-186385771D02*
X178434342Y-184885771D01*
X179148628Y-184885771D01*
X179720057Y-186385771D02*
X179720057Y-185385771D01*
X179720057Y-184885771D02*
X179648628Y-184957200D01*
X179720057Y-185028628D01*
X179791485Y-184957200D01*
X179720057Y-184885771D01*
X179720057Y-185028628D01*
X180648628Y-186385771D02*
X180505771Y-186314342D01*
X180434342Y-186171485D01*
X180434342Y-184885771D01*
X181791485Y-186314342D02*
X181648628Y-186385771D01*
X181362914Y-186385771D01*
X181220057Y-186314342D01*
X181148628Y-186171485D01*
X181148628Y-185600057D01*
X181220057Y-185457200D01*
X181362914Y-185385771D01*
X181648628Y-185385771D01*
X181791485Y-185457200D01*
X181862914Y-185600057D01*
X181862914Y-185742914D01*
X181148628Y-185885771D01*
X182505771Y-186242914D02*
X182577200Y-186314342D01*
X182505771Y-186385771D01*
X182434342Y-186314342D01*
X182505771Y-186242914D01*
X182505771Y-186385771D01*
X182505771Y-185457200D02*
X182577200Y-185528628D01*
X182505771Y-185600057D01*
X182434342Y-185528628D01*
X182505771Y-185457200D01*
X182505771Y-185600057D01*
X184362914Y-185385771D02*
X184362914Y-186385771D01*
X184362914Y-185528628D02*
X184434342Y-185457200D01*
X184577200Y-185385771D01*
X184791485Y-185385771D01*
X184934342Y-185457200D01*
X185005771Y-185600057D01*
X185005771Y-186385771D01*
X186362914Y-186385771D02*
X186362914Y-185600057D01*
X186291485Y-185457200D01*
X186148628Y-185385771D01*
X185862914Y-185385771D01*
X185720057Y-185457200D01*
X186362914Y-186314342D02*
X186220057Y-186385771D01*
X185862914Y-186385771D01*
X185720057Y-186314342D01*
X185648628Y-186171485D01*
X185648628Y-186028628D01*
X185720057Y-185885771D01*
X185862914Y-185814342D01*
X186220057Y-185814342D01*
X186362914Y-185742914D01*
X187077200Y-185385771D02*
X187077200Y-186385771D01*
X187077200Y-185528628D02*
X187148628Y-185457200D01*
X187291485Y-185385771D01*
X187505771Y-185385771D01*
X187648628Y-185457200D01*
X187720057Y-185600057D01*
X187720057Y-186385771D01*
X188648628Y-186385771D02*
X188505771Y-186314342D01*
X188434342Y-186242914D01*
X188362914Y-186100057D01*
X188362914Y-185671485D01*
X188434342Y-185528628D01*
X188505771Y-185457200D01*
X188648628Y-185385771D01*
X188862914Y-185385771D01*
X189005771Y-185457200D01*
X189077200Y-185528628D01*
X189148628Y-185671485D01*
X189148628Y-186100057D01*
X189077200Y-186242914D01*
X189005771Y-186314342D01*
X188862914Y-186385771D01*
X188648628Y-186385771D01*
X189720057Y-185957200D02*
X190434342Y-185957200D01*
X189577200Y-186385771D02*
X190077200Y-184885771D01*
X190577200Y-186385771D01*
X191291485Y-186385771D02*
X191148628Y-186314342D01*
X191077200Y-186171485D01*
X191077200Y-184885771D01*
X191648628Y-185385771D02*
X192220057Y-185385771D01*
X191862914Y-184885771D02*
X191862914Y-186171485D01*
X191934342Y-186314342D01*
X192077200Y-186385771D01*
X192220057Y-186385771D01*
X192362914Y-186528628D02*
X193505771Y-186528628D01*
X193791485Y-185957200D02*
X194505771Y-185957200D01*
X193648628Y-186385771D02*
X194148628Y-184885771D01*
X194648628Y-186385771D01*
X195362914Y-186385771D02*
X195220057Y-186314342D01*
X195148628Y-186171485D01*
X195148628Y-184885771D01*
X195934342Y-185385771D02*
X195934342Y-186885771D01*
X195934342Y-185457200D02*
X196077200Y-185385771D01*
X196362914Y-185385771D01*
X196505771Y-185457200D01*
X196577200Y-185528628D01*
X196648628Y-185671485D01*
X196648628Y-186100057D01*
X196577200Y-186242914D01*
X196505771Y-186314342D01*
X196362914Y-186385771D01*
X196077200Y-186385771D01*
X195934342Y-186314342D01*
X197291485Y-186385771D02*
X197291485Y-184885771D01*
X197934342Y-186385771D02*
X197934342Y-185600057D01*
X197862914Y-185457200D01*
X197720057Y-185385771D01*
X197505771Y-185385771D01*
X197362914Y-185457200D01*
X197291485Y-185528628D01*
X199291485Y-186385771D02*
X199291485Y-185600057D01*
X199220057Y-185457200D01*
X199077200Y-185385771D01*
X198791485Y-185385771D01*
X198648628Y-185457200D01*
X199291485Y-186314342D02*
X199148628Y-186385771D01*
X198791485Y-186385771D01*
X198648628Y-186314342D01*
X198577200Y-186171485D01*
X198577200Y-186028628D01*
X198648628Y-185885771D01*
X198791485Y-185814342D01*
X199148628Y-185814342D01*
X199291485Y-185742914D01*
X200005771Y-186242914D02*
X200077200Y-186314342D01*
X200005771Y-186385771D01*
X199934342Y-186314342D01*
X200005771Y-186242914D01*
X200005771Y-186385771D01*
X200720057Y-186385771D02*
X200720057Y-184885771D01*
X200862914Y-185814342D02*
X201291485Y-186385771D01*
X201291485Y-185385771D02*
X200720057Y-185957200D01*
X201934342Y-186385771D02*
X201934342Y-185385771D01*
X201934342Y-184885771D02*
X201862914Y-184957200D01*
X201934342Y-185028628D01*
X202005771Y-184957200D01*
X201934342Y-184885771D01*
X201934342Y-185028628D01*
X203291485Y-186314342D02*
X203148628Y-186385771D01*
X202862914Y-186385771D01*
X202720057Y-186314342D01*
X202648628Y-186242914D01*
X202577200Y-186100057D01*
X202577200Y-185671485D01*
X202648628Y-185528628D01*
X202720057Y-185457200D01*
X202862914Y-185385771D01*
X203148628Y-185385771D01*
X203291485Y-185457200D01*
X204577200Y-186385771D02*
X204577200Y-185600057D01*
X204505771Y-185457200D01*
X204362914Y-185385771D01*
X204077200Y-185385771D01*
X203934342Y-185457200D01*
X204577200Y-186314342D02*
X204434342Y-186385771D01*
X204077200Y-186385771D01*
X203934342Y-186314342D01*
X203862914Y-186171485D01*
X203862914Y-186028628D01*
X203934342Y-185885771D01*
X204077200Y-185814342D01*
X204434342Y-185814342D01*
X204577200Y-185742914D01*
X205934342Y-186385771D02*
X205934342Y-184885771D01*
X205934342Y-186314342D02*
X205791485Y-186385771D01*
X205505771Y-186385771D01*
X205362914Y-186314342D01*
X205291485Y-186242914D01*
X205220057Y-186100057D01*
X205220057Y-185671485D01*
X205291485Y-185528628D01*
X205362914Y-185457200D01*
X205505771Y-185385771D01*
X205791485Y-185385771D01*
X205934342Y-185457200D01*
X206291485Y-186528628D02*
X207434342Y-186528628D01*
X207791485Y-185385771D02*
X207791485Y-186885771D01*
X207791485Y-185457200D02*
X207934342Y-185385771D01*
X208220057Y-185385771D01*
X208362914Y-185457200D01*
X208434342Y-185528628D01*
X208505771Y-185671485D01*
X208505771Y-186100057D01*
X208434342Y-186242914D01*
X208362914Y-186314342D01*
X208220057Y-186385771D01*
X207934342Y-186385771D01*
X207791485Y-186314342D01*
X209791485Y-186314342D02*
X209648628Y-186385771D01*
X209362914Y-186385771D01*
X209220057Y-186314342D01*
X209148628Y-186242914D01*
X209077200Y-186100057D01*
X209077200Y-185671485D01*
X209148628Y-185528628D01*
X209220057Y-185457200D01*
X209362914Y-185385771D01*
X209648628Y-185385771D01*
X209791485Y-185457200D01*
X210434342Y-186385771D02*
X210434342Y-184885771D01*
X210434342Y-185457200D02*
X210577200Y-185385771D01*
X210862914Y-185385771D01*
X211005771Y-185457200D01*
X211077200Y-185528628D01*
X211148628Y-185671485D01*
X211148628Y-186100057D01*
X211077200Y-186242914D01*
X211005771Y-186314342D01*
X210862914Y-186385771D01*
X210577200Y-186385771D01*
X210434342Y-186314342D01*
D10*
D11*
X177002200Y-181507200D02*
X285002200Y-181507200D01*
D10*
D11*
X178362914Y-183614342D02*
X178577200Y-183685771D01*
X178934342Y-183685771D01*
X179077200Y-183614342D01*
X179148628Y-183542914D01*
X179220057Y-183400057D01*
X179220057Y-183257200D01*
X179148628Y-183114342D01*
X179077200Y-183042914D01*
X178934342Y-182971485D01*
X178648628Y-182900057D01*
X178505771Y-182828628D01*
X178434342Y-182757200D01*
X178362914Y-182614342D01*
X178362914Y-182471485D01*
X178434342Y-182328628D01*
X178505771Y-182257200D01*
X178648628Y-182185771D01*
X179005771Y-182185771D01*
X179220057Y-182257200D01*
X179862914Y-183685771D02*
X179862914Y-182185771D01*
X180505771Y-183685771D02*
X180505771Y-182900057D01*
X180434342Y-182757200D01*
X180291485Y-182685771D01*
X180077200Y-182685771D01*
X179934342Y-182757200D01*
X179862914Y-182828628D01*
X181791485Y-183614342D02*
X181648628Y-183685771D01*
X181362914Y-183685771D01*
X181220057Y-183614342D01*
X181148628Y-183471485D01*
X181148628Y-182900057D01*
X181220057Y-182757200D01*
X181362914Y-182685771D01*
X181648628Y-182685771D01*
X181791485Y-182757200D01*
X181862914Y-182900057D01*
X181862914Y-183042914D01*
X181148628Y-183185771D01*
X183077200Y-183614342D02*
X182934342Y-183685771D01*
X182648628Y-183685771D01*
X182505771Y-183614342D01*
X182434342Y-183471485D01*
X182434342Y-182900057D01*
X182505771Y-182757200D01*
X182648628Y-182685771D01*
X182934342Y-182685771D01*
X183077200Y-182757200D01*
X183148628Y-182900057D01*
X183148628Y-183042914D01*
X182434342Y-183185771D01*
X183577200Y-182685771D02*
X184148628Y-182685771D01*
X183791485Y-182185771D02*
X183791485Y-183471485D01*
X183862914Y-183614342D01*
X184005771Y-183685771D01*
X184148628Y-183685771D01*
X184648628Y-183542914D02*
X184720057Y-183614342D01*
X184648628Y-183685771D01*
X184577200Y-183614342D01*
X184648628Y-183542914D01*
X184648628Y-183685771D01*
X184648628Y-182757200D02*
X184720057Y-182828628D01*
X184648628Y-182900057D01*
X184577200Y-182828628D01*
X184648628Y-182757200D01*
X184648628Y-182900057D01*
D10*
D11*
X197002200Y-191507200D02*
X197002200Y-194507200D01*
D10*
D11*
X261002200Y-191507200D02*
X261002200Y-198007200D01*
D14*
G04 #@! TO.N,GND*
G04 #@! TO.C,V\002A\002A*
X140550000Y-108100000D03*
G04 #@! TD*
G04 #@! TO.N,GND*
G04 #@! TO.C,V\002A\002A*
X141930000Y-103960000D03*
G04 #@! TD*
G04 #@! TO.N,GND*
G04 #@! TO.C,V\002A\002A*
X140770000Y-102560000D03*
G04 #@! TD*
G04 #@! TO.N,GND*
G04 #@! TO.C,V\002A\002A*
X137360000Y-107580000D03*
G04 #@! TD*
G04 #@! TO.N,GND*
G04 #@! TO.C,V\002A\002A*
X136120000Y-108180000D03*
G04 #@! TD*
G04 #@! TO.N,GND*
G04 #@! TO.C,V\002A\002A*
X142250000Y-99800000D03*
G04 #@! TD*
D15*
G04 #@! TO.P,IC1,1*
G04 #@! TO.N,+BATT*
X139350000Y-105200000D03*
G04 #@! TO.P,IC1,2*
G04 #@! TO.N,/MOSI*
X139350000Y-107200000D03*
G04 #@! TO.P,IC1,3*
G04 #@! TO.N,/SCL*
X141350000Y-107200000D03*
G04 #@! TO.P,IC1,4*
G04 #@! TO.N,GND*
X141350000Y-105200000D03*
G04 #@! TD*
D16*
G04 #@! TO.P,U1,D1*
G04 #@! TO.N,Net-(R4-Pad2)*
X140071500Y-103622500D03*
G04 #@! TO.P,U1,D2*
G04 #@! TO.N,GND*
X140071500Y-102972500D03*
G04 #@! TO.P,U1,D3*
X140071500Y-102322500D03*
G04 #@! TO.P,U1,D4*
G04 #@! TO.N,+BATT*
X140071500Y-101672500D03*
G04 #@! TO.P,U1,C4*
G04 #@! TO.N,Net-(U1-PadC4)*
X139421500Y-101672500D03*
G04 #@! TO.P,U1,C3*
G04 #@! TO.N,Net-(U1-PadC3)*
X139421500Y-102322500D03*
G04 #@! TO.P,U1,C2*
G04 #@! TO.N,Net-(U1-PadC2)*
X139421500Y-102972500D03*
G04 #@! TO.P,U1,C1*
G04 #@! TO.N,Net-(U1-PadC1)*
X139421500Y-103622500D03*
G04 #@! TO.P,U1,B1*
G04 #@! TO.N,/SCL*
X138771500Y-103622500D03*
G04 #@! TO.P,U1,B2*
G04 #@! TO.N,Net-(U1-PadB2)*
X138771500Y-102972500D03*
G04 #@! TO.P,U1,B3*
G04 #@! TO.N,Net-(U1-PadB3)*
X138771500Y-102322500D03*
G04 #@! TO.P,U1,B4*
G04 #@! TO.N,/RST*
X138771500Y-101672500D03*
G04 #@! TO.P,U1,A4*
G04 #@! TO.N,Net-(U1-PadA4)*
X138121500Y-101672500D03*
G04 #@! TO.P,U1,A3*
G04 #@! TO.N,/MOSI*
X138121500Y-102322500D03*
G04 #@! TO.P,U1,A2*
G04 #@! TO.N,/MISO*
X138121500Y-102972500D03*
G04 #@! TD*
D17*
G04 #@! TO.P,D1,1*
G04 #@! TO.N,GND*
X137960000Y-100257000D03*
G04 #@! TO.P,D1,2*
G04 #@! TO.N,Net-(D1-Pad2)*
X136960000Y-100257000D03*
G04 #@! TD*
G04 #@! TO.P,R2,1*
G04 #@! TO.N,+BATT*
X136750000Y-104249500D03*
G04 #@! TO.P,R2,2*
G04 #@! TO.N,/MOSI*
X136750000Y-103249500D03*
G04 #@! TD*
G04 #@! TO.P,R3,1*
G04 #@! TO.N,+BATT*
X135880500Y-103249500D03*
G04 #@! TO.P,R3,2*
G04 #@! TO.N,/SCL*
X135880500Y-104249500D03*
G04 #@! TD*
G04 #@! TO.P,R4,1*
G04 #@! TO.N,Net-(D1-Pad2)*
X136960000Y-101281000D03*
G04 #@! TO.P,R4,2*
G04 #@! TO.N,Net-(R4-Pad2)*
X136960000Y-102281000D03*
G04 #@! TD*
G04 #@! TO.P,C1,1*
G04 #@! TO.N,+BATT*
X141270000Y-100370000D03*
G04 #@! TO.P,C1,2*
G04 #@! TO.N,GND*
X141270000Y-101370000D03*
G04 #@! TD*
G04 #@! TO.P,C2,1*
G04 #@! TO.N,+BATT*
X136960000Y-105472000D03*
G04 #@! TO.P,C2,2*
G04 #@! TO.N,GND*
X136960000Y-106472000D03*
G04 #@! TD*
G04 #@! TO.P,R1,1*
G04 #@! TO.N,/RST*
X139190500Y-99685500D03*
G04 #@! TO.P,R1,2*
G04 #@! TO.N,+BATT*
X140190500Y-99685500D03*
G04 #@! TD*
D18*
G04 #@! TO.P,INTEGRATE,1*
G04 #@! TO.N,N/C*
X133500000Y-106000000D03*
G04 #@! TD*
D19*
G04 #@! TO.P,J1,1*
G04 #@! TO.N,/MISO*
X139954000Y-109728000D03*
D20*
G04 #@! TO.P,J1,2*
G04 #@! TO.N,+BATT*
X139954000Y-110998000D03*
G04 #@! TO.P,J1,3*
G04 #@! TO.N,/SCL*
X138684000Y-109728000D03*
G04 #@! TO.P,J1,4*
G04 #@! TO.N,/MOSI*
X138684000Y-110998000D03*
G04 #@! TO.P,J1,5*
G04 #@! TO.N,/RST*
X137414000Y-109728000D03*
G04 #@! TO.P,J1,6*
G04 #@! TO.N,GND*
X137414000Y-110998000D03*
G04 #@! TD*
D21*
G04 #@! TO.N,GND*
X137580000Y-101810000D03*
X139807472Y-102058307D03*
G04 #@! TO.N,+BATT*
X142650000Y-111950000D03*
X136384920Y-105266090D03*
X142200000Y-102900000D03*
X135450002Y-102300000D03*
G04 #@! TO.N,/MOSI*
X137450000Y-103260000D03*
X138384852Y-102059705D03*
D22*
X140970000Y-112299999D03*
X138176000Y-107696000D03*
D23*
G04 #@! TO.N,/SCL*
X135250000Y-103850000D03*
D21*
X138658990Y-108740000D03*
X141700000Y-108270000D03*
X138340000Y-103640000D03*
D14*
G04 #@! TO.N,/RST*
X139150000Y-112500000D03*
D21*
X135820000Y-99540000D03*
D22*
X137414000Y-108712000D03*
D21*
G04 #@! TO.N,/MISO*
X135590000Y-105980000D03*
X138384852Y-102709705D03*
G04 #@! TO.N,Net-(R4-Pad2)*
X136331918Y-102268681D03*
X140370000Y-103350000D03*
G04 #@! TD*
D24*
G04 #@! TO.N,GND*
X140770000Y-102560000D02*
X140484000Y-102560000D01*
X140484000Y-102560000D02*
X140071500Y-102972500D01*
X137580000Y-101380000D02*
X137960000Y-101000000D01*
X137960000Y-101000000D02*
X137960000Y-100257000D01*
X137580000Y-101810000D02*
X137580000Y-101380000D01*
X140071500Y-102322500D02*
X140071500Y-102311500D01*
X140071500Y-102311500D02*
X139800000Y-102040000D01*
G04 #@! TO.N,+BATT*
X135983410Y-105266090D02*
X134806298Y-104088978D01*
X134806298Y-103711022D02*
X135267820Y-103249500D01*
X136384920Y-105266090D02*
X135983410Y-105266090D01*
X135453500Y-103249500D02*
X135880500Y-103249500D01*
X135267820Y-103249500D02*
X135453500Y-103249500D01*
X134806298Y-104088978D02*
X134806298Y-103711022D01*
X142650000Y-111716514D02*
X142650000Y-111950000D01*
X142580000Y-109210000D02*
X142650000Y-109280000D01*
X142580000Y-109210000D02*
X142580000Y-103280000D01*
X142580000Y-103280000D02*
X142200000Y-102900000D01*
X136384920Y-105323920D02*
X136384920Y-105266090D01*
X136533000Y-105472000D02*
X136384920Y-105323920D01*
X136960000Y-105472000D02*
X136533000Y-105472000D01*
X141293534Y-102900000D02*
X141293534Y-103436466D01*
X141293534Y-102330000D02*
X141293534Y-102900000D01*
X141293534Y-102900000D02*
X142200000Y-102900000D01*
X136750000Y-104249500D02*
X136750000Y-105262000D01*
X136750000Y-105262000D02*
X136960000Y-105472000D01*
X140270000Y-105020000D02*
X140090000Y-105200000D01*
X140090000Y-105200000D02*
X139350000Y-105200000D01*
X140270000Y-104460000D02*
X140270000Y-105020000D01*
X141293534Y-103436466D02*
X140270000Y-104460000D01*
X140071500Y-101672500D02*
X140636034Y-101672500D01*
X140636034Y-101672500D02*
X141293534Y-102330000D01*
X140190500Y-100112500D02*
X140328000Y-100250000D01*
X140328000Y-100250000D02*
X140448000Y-100370000D01*
X140071500Y-101672500D02*
X140071500Y-100506500D01*
X140071500Y-100506500D02*
X140328000Y-100250000D01*
X140190500Y-99685500D02*
X140190500Y-100112500D01*
X140448000Y-100370000D02*
X140843000Y-100370000D01*
X140843000Y-100370000D02*
X141270000Y-100370000D01*
X135615101Y-102465099D02*
X135450002Y-102300000D01*
X135880500Y-103249500D02*
X135880500Y-102730498D01*
X135880500Y-102730498D02*
X135615101Y-102465099D01*
X139954000Y-110998000D02*
X142650000Y-110998000D01*
X142650000Y-109280000D02*
X142650000Y-110998000D01*
X142650000Y-110998000D02*
X142650000Y-111716514D01*
G04 #@! TO.N,Net-(U1-PadC3)*
X139421500Y-102322500D02*
X139421500Y-102318500D01*
G04 #@! TO.N,Net-(U1-PadB2)*
X138771500Y-102972500D02*
X138807500Y-102972500D01*
G04 #@! TO.N,/MOSI*
X137950000Y-106690000D02*
X138460000Y-107200000D01*
X138460000Y-107200000D02*
X139350000Y-107200000D01*
X137950000Y-103760000D02*
X137950000Y-106690000D01*
X137450000Y-103260000D02*
X137950000Y-103760000D01*
X137450000Y-103260000D02*
X136760500Y-103260000D01*
X136760500Y-103260000D02*
X136750000Y-103249500D01*
X138121500Y-102322500D02*
X138122057Y-102322500D01*
X138122057Y-102322500D02*
X138384852Y-102059705D01*
X138684000Y-110998000D02*
X139985999Y-112299999D01*
X139985999Y-112299999D02*
X140970000Y-112299999D01*
X138460000Y-107412000D02*
X138460000Y-107200000D01*
X138176000Y-107696000D02*
X138460000Y-107412000D01*
G04 #@! TO.N,/SCL*
X135250000Y-104046000D02*
X135250000Y-103850000D01*
X135453500Y-104249500D02*
X135250000Y-104046000D01*
X135880500Y-104249500D02*
X135453500Y-104249500D01*
X141350000Y-107200000D02*
X141350000Y-107920000D01*
X141350000Y-107920000D02*
X141700000Y-108270000D01*
X140390000Y-106940000D02*
X140650000Y-107200000D01*
X140650000Y-107200000D02*
X141350000Y-107200000D01*
X140390000Y-106530000D02*
X140390000Y-106940000D01*
X140070000Y-106210000D02*
X140390000Y-106530000D01*
X138830000Y-106210000D02*
X140070000Y-106210000D01*
X138340000Y-105720000D02*
X138830000Y-106210000D01*
X138340000Y-103640000D02*
X138340000Y-105720000D01*
X138771500Y-103622500D02*
X138357500Y-103622500D01*
X138357500Y-103622500D02*
X138340000Y-103640000D01*
D25*
X138749000Y-103600000D02*
X138771500Y-103622500D01*
D24*
X138658990Y-109702990D02*
X138684000Y-109728000D01*
X138658990Y-108740000D02*
X138658990Y-109702990D01*
G04 #@! TO.N,/RST*
X138689000Y-99760000D02*
X138610000Y-99839000D01*
X138763500Y-99685500D02*
X138689000Y-99760000D01*
X138689000Y-99760000D02*
X138389000Y-99460000D01*
X138389000Y-99460000D02*
X135900000Y-99460000D01*
X135900000Y-99460000D02*
X135820000Y-99540000D01*
X138610000Y-99839000D02*
X138610000Y-101511000D01*
X138610000Y-101511000D02*
X138771500Y-101672500D01*
X139190500Y-99685500D02*
X138763500Y-99685500D01*
X137414000Y-109728000D02*
X137414000Y-108712000D01*
G04 #@! TO.N,/MISO*
X138121500Y-102972500D02*
X138137500Y-102972500D01*
X138137500Y-102972500D02*
X138430000Y-102680000D01*
X135590000Y-106888000D02*
X135590000Y-105980000D01*
X136906000Y-108204000D02*
X135590000Y-106888000D01*
X138957000Y-108204000D02*
X136906000Y-108204000D01*
X139954000Y-109728000D02*
X139954000Y-109201000D01*
X139954000Y-109201000D02*
X138957000Y-108204000D01*
G04 #@! TO.N,Net-(D1-Pad2)*
X136960000Y-100257000D02*
X136960000Y-101281000D01*
G04 #@! TO.N,Net-(R4-Pad2)*
X136960000Y-102281000D02*
X136344237Y-102281000D01*
X136344237Y-102281000D02*
X136331918Y-102268681D01*
X140071500Y-103622500D02*
X140097500Y-103622500D01*
X140097500Y-103622500D02*
X140370000Y-103350000D01*
G04 #@! TD*
G04 #@! TO.N,GND*
G36*
X135497004Y-99324181D02*
X135439000Y-99464214D01*
X135439000Y-99615786D01*
X135497004Y-99755819D01*
X135604181Y-99862996D01*
X135744214Y-99921000D01*
X135895786Y-99921000D01*
X136035819Y-99862996D01*
X136142996Y-99755819D01*
X136149797Y-99739400D01*
X136647286Y-99739400D01*
X136575760Y-99753627D01*
X136504345Y-99801345D01*
X136456627Y-99872760D01*
X136439871Y-99957000D01*
X136439871Y-100557000D01*
X136456627Y-100641240D01*
X136504345Y-100712655D01*
X136575760Y-100760373D01*
X136619132Y-100769000D01*
X136575760Y-100777627D01*
X136504345Y-100825345D01*
X136456627Y-100896760D01*
X136439871Y-100981000D01*
X136439871Y-101581000D01*
X136456627Y-101665240D01*
X136504345Y-101736655D01*
X136570712Y-101781000D01*
X136504345Y-101825345D01*
X136456627Y-101896760D01*
X136454571Y-101907094D01*
X136407704Y-101887681D01*
X136256132Y-101887681D01*
X136116099Y-101945685D01*
X136008922Y-102052862D01*
X135950918Y-102192895D01*
X135950918Y-102344467D01*
X135994277Y-102449143D01*
X135831002Y-102285870D01*
X135831002Y-102224214D01*
X135772998Y-102084181D01*
X135665821Y-101977004D01*
X135525788Y-101919000D01*
X135374216Y-101919000D01*
X135234183Y-101977004D01*
X135127006Y-102084181D01*
X135069002Y-102224214D01*
X135069002Y-102375786D01*
X135127006Y-102515819D01*
X135234183Y-102622996D01*
X135374216Y-102681000D01*
X135435872Y-102681000D01*
X135500212Y-102745341D01*
X135496260Y-102746127D01*
X135424845Y-102793845D01*
X135377127Y-102865260D01*
X135360371Y-102949500D01*
X135360371Y-102970100D01*
X135295334Y-102970100D01*
X135267820Y-102964627D01*
X135215034Y-102975127D01*
X135158804Y-102986312D01*
X135066384Y-103048064D01*
X135050799Y-103071389D01*
X134628191Y-103493999D01*
X134604863Y-103509586D01*
X134567290Y-103565819D01*
X134543111Y-103602006D01*
X134521425Y-103711022D01*
X134526898Y-103738535D01*
X134526898Y-104061465D01*
X134521425Y-104088978D01*
X134526898Y-104116491D01*
X134543110Y-104197993D01*
X134604862Y-104290414D01*
X134628193Y-104306003D01*
X135766389Y-105444201D01*
X135781974Y-105467526D01*
X135805299Y-105483111D01*
X135874394Y-105529278D01*
X135983410Y-105550963D01*
X136010924Y-105545490D01*
X136125505Y-105545490D01*
X136169101Y-105589086D01*
X136309134Y-105647090D01*
X136312959Y-105647090D01*
X136315977Y-105650107D01*
X136331564Y-105673436D01*
X136371321Y-105700000D01*
X136423984Y-105735188D01*
X136439871Y-105738348D01*
X136439871Y-105772000D01*
X136456627Y-105856240D01*
X136504345Y-105927655D01*
X136566157Y-105968956D01*
X136533397Y-105982526D01*
X136470526Y-106045397D01*
X136436500Y-106127543D01*
X136436500Y-106352625D01*
X136492375Y-106408500D01*
X136896500Y-106408500D01*
X136896500Y-106388500D01*
X137023500Y-106388500D01*
X137023500Y-106408500D01*
X137427625Y-106408500D01*
X137483500Y-106352625D01*
X137483500Y-106127543D01*
X137449474Y-106045397D01*
X137386603Y-105982526D01*
X137353843Y-105968956D01*
X137415655Y-105927655D01*
X137463373Y-105856240D01*
X137480129Y-105772000D01*
X137480129Y-105172000D01*
X137463373Y-105087760D01*
X137415655Y-105016345D01*
X137344240Y-104968627D01*
X137260000Y-104951871D01*
X137029400Y-104951871D01*
X137029400Y-104769629D01*
X137050000Y-104769629D01*
X137134240Y-104752873D01*
X137205655Y-104705155D01*
X137253373Y-104633740D01*
X137270129Y-104549500D01*
X137270129Y-103949500D01*
X137253373Y-103865260D01*
X137205655Y-103793845D01*
X137139288Y-103749500D01*
X137205655Y-103705155D01*
X137253373Y-103633740D01*
X137261237Y-103594203D01*
X137374214Y-103641000D01*
X137435869Y-103641000D01*
X137670600Y-103875732D01*
X137670601Y-106662482D01*
X137665127Y-106690000D01*
X137686813Y-106799016D01*
X137748565Y-106891436D01*
X137771893Y-106907023D01*
X138144968Y-107280100D01*
X138093272Y-107280100D01*
X137940412Y-107343417D01*
X137823417Y-107460412D01*
X137760100Y-107613272D01*
X137760100Y-107778728D01*
X137820522Y-107924600D01*
X137021731Y-107924600D01*
X135869400Y-106772270D01*
X135869400Y-106591375D01*
X136436500Y-106591375D01*
X136436500Y-106816457D01*
X136470526Y-106898603D01*
X136533397Y-106961474D01*
X136615543Y-106995500D01*
X136840625Y-106995500D01*
X136896500Y-106939625D01*
X136896500Y-106535500D01*
X137023500Y-106535500D01*
X137023500Y-106939625D01*
X137079375Y-106995500D01*
X137304457Y-106995500D01*
X137386603Y-106961474D01*
X137449474Y-106898603D01*
X137483500Y-106816457D01*
X137483500Y-106591375D01*
X137427625Y-106535500D01*
X137023500Y-106535500D01*
X136896500Y-106535500D01*
X136492375Y-106535500D01*
X136436500Y-106591375D01*
X135869400Y-106591375D01*
X135869400Y-106239415D01*
X135912996Y-106195819D01*
X135971000Y-106055786D01*
X135971000Y-105904214D01*
X135912996Y-105764181D01*
X135805819Y-105657004D01*
X135665786Y-105599000D01*
X135514214Y-105599000D01*
X135374181Y-105657004D01*
X135267004Y-105764181D01*
X135215900Y-105887556D01*
X135215900Y-105658686D01*
X134954669Y-105028021D01*
X134471979Y-104545331D01*
X133841314Y-104284100D01*
X133158686Y-104284100D01*
X132528021Y-104545331D01*
X132045331Y-105028021D01*
X131784100Y-105658686D01*
X131784100Y-106341314D01*
X132045331Y-106971979D01*
X132528021Y-107454669D01*
X133158686Y-107715900D01*
X133841314Y-107715900D01*
X134471979Y-107454669D01*
X134954669Y-106971979D01*
X135215900Y-106341314D01*
X135215900Y-106072444D01*
X135267004Y-106195819D01*
X135310601Y-106239416D01*
X135310600Y-106860487D01*
X135305127Y-106888000D01*
X135310600Y-106915513D01*
X135326812Y-106997015D01*
X135388564Y-107089436D01*
X135411895Y-107105025D01*
X136688977Y-108382108D01*
X136704564Y-108405436D01*
X136796984Y-108467188D01*
X136878486Y-108483400D01*
X136905999Y-108488873D01*
X136933512Y-108483400D01*
X137058522Y-108483400D01*
X136998100Y-108629272D01*
X136998100Y-108794728D01*
X137061417Y-108947588D01*
X137134601Y-109020772D01*
X137134601Y-109177086D01*
X137065121Y-109205865D01*
X136891865Y-109379121D01*
X136798100Y-109605490D01*
X136798100Y-109850510D01*
X136891865Y-110076879D01*
X137065121Y-110250135D01*
X137291490Y-110343900D01*
X137536510Y-110343900D01*
X137762879Y-110250135D01*
X137936135Y-110076879D01*
X138029900Y-109850510D01*
X138029900Y-109605490D01*
X137936135Y-109379121D01*
X137762879Y-109205865D01*
X137693400Y-109177086D01*
X137693400Y-109020771D01*
X137766583Y-108947588D01*
X137829900Y-108794728D01*
X137829900Y-108629272D01*
X137769478Y-108483400D01*
X138376775Y-108483400D01*
X138335994Y-108524181D01*
X138277990Y-108664214D01*
X138277990Y-108815786D01*
X138335994Y-108955819D01*
X138379590Y-108999415D01*
X138379590Y-109187445D01*
X138335121Y-109205865D01*
X138161865Y-109379121D01*
X138068100Y-109605490D01*
X138068100Y-109850510D01*
X138161865Y-110076879D01*
X138335121Y-110250135D01*
X138561490Y-110343900D01*
X138806510Y-110343900D01*
X139032879Y-110250135D01*
X139206135Y-110076879D01*
X139299900Y-109850510D01*
X139299900Y-109605490D01*
X139206135Y-109379121D01*
X139032879Y-109205865D01*
X138938390Y-109166726D01*
X138938390Y-108999415D01*
X138981986Y-108955819D01*
X139039990Y-108815786D01*
X139039990Y-108682121D01*
X139480383Y-109122514D01*
X139469760Y-109124627D01*
X139398345Y-109172345D01*
X139350627Y-109243760D01*
X139333871Y-109328000D01*
X139333871Y-110128000D01*
X139350627Y-110212240D01*
X139398345Y-110283655D01*
X139469760Y-110331373D01*
X139554000Y-110348129D01*
X140354000Y-110348129D01*
X140438240Y-110331373D01*
X140509655Y-110283655D01*
X140557373Y-110212240D01*
X140574129Y-110128000D01*
X140574129Y-109328000D01*
X140557373Y-109243760D01*
X140509655Y-109172345D01*
X140438240Y-109124627D01*
X140354000Y-109107871D01*
X140220348Y-109107871D01*
X140217188Y-109091983D01*
X140171021Y-109022889D01*
X140155436Y-108999564D01*
X140132111Y-108983979D01*
X139174025Y-108025895D01*
X139158436Y-108002564D01*
X139066016Y-107940812D01*
X138984514Y-107924600D01*
X138984513Y-107924600D01*
X138962037Y-107920129D01*
X139850000Y-107920129D01*
X139934240Y-107903373D01*
X140005655Y-107855655D01*
X140053373Y-107784240D01*
X140070129Y-107700000D01*
X140070129Y-106700000D01*
X140053373Y-106615760D01*
X140005655Y-106544345D01*
X139934240Y-106496627D01*
X139897907Y-106489400D01*
X139954270Y-106489400D01*
X140110600Y-106645731D01*
X140110600Y-106912487D01*
X140105127Y-106940000D01*
X140110600Y-106967513D01*
X140110600Y-106967514D01*
X140126813Y-107049016D01*
X140188565Y-107141436D01*
X140211893Y-107157023D01*
X140432977Y-107378108D01*
X140448564Y-107401436D01*
X140505553Y-107439514D01*
X140540984Y-107463188D01*
X140629871Y-107480869D01*
X140629871Y-107700000D01*
X140646627Y-107784240D01*
X140694345Y-107855655D01*
X140765760Y-107903373D01*
X140850000Y-107920129D01*
X141065153Y-107920129D01*
X141078451Y-107986980D01*
X141086813Y-108029016D01*
X141148565Y-108121436D01*
X141171892Y-108137023D01*
X141319000Y-108284131D01*
X141319000Y-108345786D01*
X141377004Y-108485819D01*
X141484181Y-108592996D01*
X141624214Y-108651000D01*
X141775786Y-108651000D01*
X141915819Y-108592996D01*
X142022996Y-108485819D01*
X142081000Y-108345786D01*
X142081000Y-108194214D01*
X142022996Y-108054181D01*
X141915819Y-107947004D01*
X141850633Y-107920003D01*
X141934240Y-107903373D01*
X142005655Y-107855655D01*
X142053373Y-107784240D01*
X142070129Y-107700000D01*
X142070129Y-106700000D01*
X142053373Y-106615760D01*
X142005655Y-106544345D01*
X141934240Y-106496627D01*
X141850000Y-106479871D01*
X140850000Y-106479871D01*
X140765760Y-106496627D01*
X140694345Y-106544345D01*
X140669400Y-106581678D01*
X140669400Y-106557512D01*
X140674873Y-106529999D01*
X140669400Y-106502486D01*
X140653188Y-106420984D01*
X140591436Y-106328564D01*
X140568108Y-106312977D01*
X140287025Y-106031895D01*
X140271436Y-106008564D01*
X140179016Y-105946812D01*
X140097514Y-105930600D01*
X140097513Y-105930600D01*
X140070000Y-105925127D01*
X140042487Y-105930600D01*
X138945732Y-105930600D01*
X138935261Y-105920129D01*
X139850000Y-105920129D01*
X139934240Y-105903373D01*
X140005655Y-105855655D01*
X140053373Y-105784240D01*
X140070129Y-105700000D01*
X140070129Y-105480920D01*
X140090000Y-105484873D01*
X140117513Y-105479400D01*
X140117514Y-105479400D01*
X140199016Y-105463188D01*
X140291436Y-105401436D01*
X140307025Y-105378106D01*
X140365755Y-105319375D01*
X140626500Y-105319375D01*
X140626500Y-105744457D01*
X140660526Y-105826603D01*
X140723397Y-105889474D01*
X140805543Y-105923500D01*
X141230625Y-105923500D01*
X141286500Y-105867625D01*
X141286500Y-105263500D01*
X141413500Y-105263500D01*
X141413500Y-105867625D01*
X141469375Y-105923500D01*
X141894457Y-105923500D01*
X141976603Y-105889474D01*
X142039474Y-105826603D01*
X142073500Y-105744457D01*
X142073500Y-105319375D01*
X142017625Y-105263500D01*
X141413500Y-105263500D01*
X141286500Y-105263500D01*
X140682375Y-105263500D01*
X140626500Y-105319375D01*
X140365755Y-105319375D01*
X140448107Y-105237023D01*
X140471436Y-105221436D01*
X140533188Y-105129016D01*
X140549400Y-105047514D01*
X140554873Y-105020001D01*
X140549400Y-104992488D01*
X140549400Y-104655543D01*
X140626500Y-104655543D01*
X140626500Y-105080625D01*
X140682375Y-105136500D01*
X141286500Y-105136500D01*
X141286500Y-104532375D01*
X141413500Y-104532375D01*
X141413500Y-105136500D01*
X142017625Y-105136500D01*
X142073500Y-105080625D01*
X142073500Y-104655543D01*
X142039474Y-104573397D01*
X141976603Y-104510526D01*
X141894457Y-104476500D01*
X141469375Y-104476500D01*
X141413500Y-104532375D01*
X141286500Y-104532375D01*
X141230625Y-104476500D01*
X140805543Y-104476500D01*
X140723397Y-104510526D01*
X140660526Y-104573397D01*
X140626500Y-104655543D01*
X140549400Y-104655543D01*
X140549400Y-104575730D01*
X141471645Y-103653487D01*
X141494970Y-103637902D01*
X141556722Y-103545482D01*
X141572934Y-103463980D01*
X141578407Y-103436466D01*
X141572934Y-103408952D01*
X141572934Y-103179400D01*
X141940585Y-103179400D01*
X141984181Y-103222996D01*
X142124214Y-103281000D01*
X142185870Y-103281000D01*
X142300601Y-103395732D01*
X142300600Y-109182487D01*
X142295127Y-109210000D01*
X142300600Y-109237513D01*
X142316812Y-109319015D01*
X142370600Y-109399517D01*
X142370601Y-110718600D01*
X140504914Y-110718600D01*
X140476135Y-110649121D01*
X140302879Y-110475865D01*
X140076510Y-110382100D01*
X139831490Y-110382100D01*
X139605121Y-110475865D01*
X139431865Y-110649121D01*
X139338100Y-110875490D01*
X139338100Y-111120510D01*
X139431865Y-111346879D01*
X139605121Y-111520135D01*
X139831490Y-111613900D01*
X140076510Y-111613900D01*
X140302879Y-111520135D01*
X140476135Y-111346879D01*
X140504914Y-111277400D01*
X142370600Y-111277400D01*
X142370601Y-111688996D01*
X142370600Y-111689001D01*
X142370600Y-111690585D01*
X142327004Y-111734181D01*
X142269000Y-111874214D01*
X142269000Y-112025786D01*
X142327004Y-112165819D01*
X142434181Y-112272996D01*
X142574214Y-112331000D01*
X142709100Y-112331000D01*
X142709100Y-112709100D01*
X141069142Y-112709100D01*
X141205588Y-112652582D01*
X141322583Y-112535587D01*
X141385900Y-112382727D01*
X141385900Y-112217271D01*
X141322583Y-112064411D01*
X141205588Y-111947416D01*
X141052728Y-111884099D01*
X140887272Y-111884099D01*
X140734412Y-111947416D01*
X140661229Y-112020599D01*
X140101731Y-112020599D01*
X139271121Y-111189990D01*
X139299900Y-111120510D01*
X139299900Y-110875490D01*
X139206135Y-110649121D01*
X139032879Y-110475865D01*
X138806510Y-110382100D01*
X138561490Y-110382100D01*
X138335121Y-110475865D01*
X138161865Y-110649121D01*
X138068100Y-110875490D01*
X138068100Y-111120510D01*
X138161865Y-111346879D01*
X138335121Y-111520135D01*
X138561490Y-111613900D01*
X138806510Y-111613900D01*
X138875990Y-111585121D01*
X139290772Y-111999904D01*
X139252619Y-111984100D01*
X139047381Y-111984100D01*
X138857766Y-112062641D01*
X138712641Y-112207766D01*
X138634100Y-112397381D01*
X138634100Y-112602619D01*
X138678206Y-112709100D01*
X135290900Y-112709100D01*
X135290900Y-111450444D01*
X137051359Y-111450444D01*
X137093577Y-111547057D01*
X137328083Y-111627883D01*
X137575669Y-111612815D01*
X137734423Y-111547057D01*
X137776641Y-111450444D01*
X137414000Y-111087803D01*
X137051359Y-111450444D01*
X135290900Y-111450444D01*
X135290900Y-111039111D01*
X135295853Y-111021025D01*
X135290900Y-110981737D01*
X135290900Y-110971349D01*
X135287324Y-110953370D01*
X135282119Y-110912083D01*
X136784117Y-110912083D01*
X136799185Y-111159669D01*
X136864943Y-111318423D01*
X136961556Y-111360641D01*
X137324197Y-110998000D01*
X137503803Y-110998000D01*
X137866444Y-111360641D01*
X137963057Y-111318423D01*
X138043883Y-111083917D01*
X138028815Y-110836331D01*
X137963057Y-110677577D01*
X137866444Y-110635359D01*
X137503803Y-110998000D01*
X137324197Y-110998000D01*
X136961556Y-110635359D01*
X136864943Y-110677577D01*
X136784117Y-110912083D01*
X135282119Y-110912083D01*
X135281378Y-110906207D01*
X135276101Y-110896950D01*
X135274022Y-110886496D01*
X135247610Y-110846968D01*
X135224067Y-110805667D01*
X135215646Y-110799132D01*
X135209727Y-110790273D01*
X135170201Y-110763863D01*
X135155720Y-110752624D01*
X135146429Y-110747978D01*
X135113503Y-110725978D01*
X135095111Y-110722320D01*
X134741583Y-110545556D01*
X137051359Y-110545556D01*
X137414000Y-110908197D01*
X137776641Y-110545556D01*
X137734423Y-110448943D01*
X137499917Y-110368117D01*
X137252331Y-110383185D01*
X137093577Y-110448943D01*
X137051359Y-110545556D01*
X134741583Y-110545556D01*
X131290900Y-108820215D01*
X131290900Y-103179785D01*
X135095111Y-101277680D01*
X135113503Y-101274022D01*
X135146429Y-101252022D01*
X135155720Y-101247376D01*
X135170201Y-101236137D01*
X135209727Y-101209727D01*
X135215646Y-101200868D01*
X135224067Y-101194333D01*
X135247610Y-101153032D01*
X135274022Y-101113504D01*
X135276101Y-101103050D01*
X135281378Y-101093793D01*
X135287324Y-101046630D01*
X135290900Y-101028651D01*
X135290900Y-101018263D01*
X135295853Y-100978975D01*
X135290900Y-100960889D01*
X135290900Y-99290900D01*
X135530285Y-99290900D01*
X135497004Y-99324181D01*
X135497004Y-99324181D01*
G37*
X135497004Y-99324181D02*
X135439000Y-99464214D01*
X135439000Y-99615786D01*
X135497004Y-99755819D01*
X135604181Y-99862996D01*
X135744214Y-99921000D01*
X135895786Y-99921000D01*
X136035819Y-99862996D01*
X136142996Y-99755819D01*
X136149797Y-99739400D01*
X136647286Y-99739400D01*
X136575760Y-99753627D01*
X136504345Y-99801345D01*
X136456627Y-99872760D01*
X136439871Y-99957000D01*
X136439871Y-100557000D01*
X136456627Y-100641240D01*
X136504345Y-100712655D01*
X136575760Y-100760373D01*
X136619132Y-100769000D01*
X136575760Y-100777627D01*
X136504345Y-100825345D01*
X136456627Y-100896760D01*
X136439871Y-100981000D01*
X136439871Y-101581000D01*
X136456627Y-101665240D01*
X136504345Y-101736655D01*
X136570712Y-101781000D01*
X136504345Y-101825345D01*
X136456627Y-101896760D01*
X136454571Y-101907094D01*
X136407704Y-101887681D01*
X136256132Y-101887681D01*
X136116099Y-101945685D01*
X136008922Y-102052862D01*
X135950918Y-102192895D01*
X135950918Y-102344467D01*
X135994277Y-102449143D01*
X135831002Y-102285870D01*
X135831002Y-102224214D01*
X135772998Y-102084181D01*
X135665821Y-101977004D01*
X135525788Y-101919000D01*
X135374216Y-101919000D01*
X135234183Y-101977004D01*
X135127006Y-102084181D01*
X135069002Y-102224214D01*
X135069002Y-102375786D01*
X135127006Y-102515819D01*
X135234183Y-102622996D01*
X135374216Y-102681000D01*
X135435872Y-102681000D01*
X135500212Y-102745341D01*
X135496260Y-102746127D01*
X135424845Y-102793845D01*
X135377127Y-102865260D01*
X135360371Y-102949500D01*
X135360371Y-102970100D01*
X135295334Y-102970100D01*
X135267820Y-102964627D01*
X135215034Y-102975127D01*
X135158804Y-102986312D01*
X135066384Y-103048064D01*
X135050799Y-103071389D01*
X134628191Y-103493999D01*
X134604863Y-103509586D01*
X134567290Y-103565819D01*
X134543111Y-103602006D01*
X134521425Y-103711022D01*
X134526898Y-103738535D01*
X134526898Y-104061465D01*
X134521425Y-104088978D01*
X134526898Y-104116491D01*
X134543110Y-104197993D01*
X134604862Y-104290414D01*
X134628193Y-104306003D01*
X135766389Y-105444201D01*
X135781974Y-105467526D01*
X135805299Y-105483111D01*
X135874394Y-105529278D01*
X135983410Y-105550963D01*
X136010924Y-105545490D01*
X136125505Y-105545490D01*
X136169101Y-105589086D01*
X136309134Y-105647090D01*
X136312959Y-105647090D01*
X136315977Y-105650107D01*
X136331564Y-105673436D01*
X136371321Y-105700000D01*
X136423984Y-105735188D01*
X136439871Y-105738348D01*
X136439871Y-105772000D01*
X136456627Y-105856240D01*
X136504345Y-105927655D01*
X136566157Y-105968956D01*
X136533397Y-105982526D01*
X136470526Y-106045397D01*
X136436500Y-106127543D01*
X136436500Y-106352625D01*
X136492375Y-106408500D01*
X136896500Y-106408500D01*
X136896500Y-106388500D01*
X137023500Y-106388500D01*
X137023500Y-106408500D01*
X137427625Y-106408500D01*
X137483500Y-106352625D01*
X137483500Y-106127543D01*
X137449474Y-106045397D01*
X137386603Y-105982526D01*
X137353843Y-105968956D01*
X137415655Y-105927655D01*
X137463373Y-105856240D01*
X137480129Y-105772000D01*
X137480129Y-105172000D01*
X137463373Y-105087760D01*
X137415655Y-105016345D01*
X137344240Y-104968627D01*
X137260000Y-104951871D01*
X137029400Y-104951871D01*
X137029400Y-104769629D01*
X137050000Y-104769629D01*
X137134240Y-104752873D01*
X137205655Y-104705155D01*
X137253373Y-104633740D01*
X137270129Y-104549500D01*
X137270129Y-103949500D01*
X137253373Y-103865260D01*
X137205655Y-103793845D01*
X137139288Y-103749500D01*
X137205655Y-103705155D01*
X137253373Y-103633740D01*
X137261237Y-103594203D01*
X137374214Y-103641000D01*
X137435869Y-103641000D01*
X137670600Y-103875732D01*
X137670601Y-106662482D01*
X137665127Y-106690000D01*
X137686813Y-106799016D01*
X137748565Y-106891436D01*
X137771893Y-106907023D01*
X138144968Y-107280100D01*
X138093272Y-107280100D01*
X137940412Y-107343417D01*
X137823417Y-107460412D01*
X137760100Y-107613272D01*
X137760100Y-107778728D01*
X137820522Y-107924600D01*
X137021731Y-107924600D01*
X135869400Y-106772270D01*
X135869400Y-106591375D01*
X136436500Y-106591375D01*
X136436500Y-106816457D01*
X136470526Y-106898603D01*
X136533397Y-106961474D01*
X136615543Y-106995500D01*
X136840625Y-106995500D01*
X136896500Y-106939625D01*
X136896500Y-106535500D01*
X137023500Y-106535500D01*
X137023500Y-106939625D01*
X137079375Y-106995500D01*
X137304457Y-106995500D01*
X137386603Y-106961474D01*
X137449474Y-106898603D01*
X137483500Y-106816457D01*
X137483500Y-106591375D01*
X137427625Y-106535500D01*
X137023500Y-106535500D01*
X136896500Y-106535500D01*
X136492375Y-106535500D01*
X136436500Y-106591375D01*
X135869400Y-106591375D01*
X135869400Y-106239415D01*
X135912996Y-106195819D01*
X135971000Y-106055786D01*
X135971000Y-105904214D01*
X135912996Y-105764181D01*
X135805819Y-105657004D01*
X135665786Y-105599000D01*
X135514214Y-105599000D01*
X135374181Y-105657004D01*
X135267004Y-105764181D01*
X135215900Y-105887556D01*
X135215900Y-105658686D01*
X134954669Y-105028021D01*
X134471979Y-104545331D01*
X133841314Y-104284100D01*
X133158686Y-104284100D01*
X132528021Y-104545331D01*
X132045331Y-105028021D01*
X131784100Y-105658686D01*
X131784100Y-106341314D01*
X132045331Y-106971979D01*
X132528021Y-107454669D01*
X133158686Y-107715900D01*
X133841314Y-107715900D01*
X134471979Y-107454669D01*
X134954669Y-106971979D01*
X135215900Y-106341314D01*
X135215900Y-106072444D01*
X135267004Y-106195819D01*
X135310601Y-106239416D01*
X135310600Y-106860487D01*
X135305127Y-106888000D01*
X135310600Y-106915513D01*
X135326812Y-106997015D01*
X135388564Y-107089436D01*
X135411895Y-107105025D01*
X136688977Y-108382108D01*
X136704564Y-108405436D01*
X136796984Y-108467188D01*
X136878486Y-108483400D01*
X136905999Y-108488873D01*
X136933512Y-108483400D01*
X137058522Y-108483400D01*
X136998100Y-108629272D01*
X136998100Y-108794728D01*
X137061417Y-108947588D01*
X137134601Y-109020772D01*
X137134601Y-109177086D01*
X137065121Y-109205865D01*
X136891865Y-109379121D01*
X136798100Y-109605490D01*
X136798100Y-109850510D01*
X136891865Y-110076879D01*
X137065121Y-110250135D01*
X137291490Y-110343900D01*
X137536510Y-110343900D01*
X137762879Y-110250135D01*
X137936135Y-110076879D01*
X138029900Y-109850510D01*
X138029900Y-109605490D01*
X137936135Y-109379121D01*
X137762879Y-109205865D01*
X137693400Y-109177086D01*
X137693400Y-109020771D01*
X137766583Y-108947588D01*
X137829900Y-108794728D01*
X137829900Y-108629272D01*
X137769478Y-108483400D01*
X138376775Y-108483400D01*
X138335994Y-108524181D01*
X138277990Y-108664214D01*
X138277990Y-108815786D01*
X138335994Y-108955819D01*
X138379590Y-108999415D01*
X138379590Y-109187445D01*
X138335121Y-109205865D01*
X138161865Y-109379121D01*
X138068100Y-109605490D01*
X138068100Y-109850510D01*
X138161865Y-110076879D01*
X138335121Y-110250135D01*
X138561490Y-110343900D01*
X138806510Y-110343900D01*
X139032879Y-110250135D01*
X139206135Y-110076879D01*
X139299900Y-109850510D01*
X139299900Y-109605490D01*
X139206135Y-109379121D01*
X139032879Y-109205865D01*
X138938390Y-109166726D01*
X138938390Y-108999415D01*
X138981986Y-108955819D01*
X139039990Y-108815786D01*
X139039990Y-108682121D01*
X139480383Y-109122514D01*
X139469760Y-109124627D01*
X139398345Y-109172345D01*
X139350627Y-109243760D01*
X139333871Y-109328000D01*
X139333871Y-110128000D01*
X139350627Y-110212240D01*
X139398345Y-110283655D01*
X139469760Y-110331373D01*
X139554000Y-110348129D01*
X140354000Y-110348129D01*
X140438240Y-110331373D01*
X140509655Y-110283655D01*
X140557373Y-110212240D01*
X140574129Y-110128000D01*
X140574129Y-109328000D01*
X140557373Y-109243760D01*
X140509655Y-109172345D01*
X140438240Y-109124627D01*
X140354000Y-109107871D01*
X140220348Y-109107871D01*
X140217188Y-109091983D01*
X140171021Y-109022889D01*
X140155436Y-108999564D01*
X140132111Y-108983979D01*
X139174025Y-108025895D01*
X139158436Y-108002564D01*
X139066016Y-107940812D01*
X138984514Y-107924600D01*
X138984513Y-107924600D01*
X138962037Y-107920129D01*
X139850000Y-107920129D01*
X139934240Y-107903373D01*
X140005655Y-107855655D01*
X140053373Y-107784240D01*
X140070129Y-107700000D01*
X140070129Y-106700000D01*
X140053373Y-106615760D01*
X140005655Y-106544345D01*
X139934240Y-106496627D01*
X139897907Y-106489400D01*
X139954270Y-106489400D01*
X140110600Y-106645731D01*
X140110600Y-106912487D01*
X140105127Y-106940000D01*
X140110600Y-106967513D01*
X140110600Y-106967514D01*
X140126813Y-107049016D01*
X140188565Y-107141436D01*
X140211893Y-107157023D01*
X140432977Y-107378108D01*
X140448564Y-107401436D01*
X140505553Y-107439514D01*
X140540984Y-107463188D01*
X140629871Y-107480869D01*
X140629871Y-107700000D01*
X140646627Y-107784240D01*
X140694345Y-107855655D01*
X140765760Y-107903373D01*
X140850000Y-107920129D01*
X141065153Y-107920129D01*
X141078451Y-107986980D01*
X141086813Y-108029016D01*
X141148565Y-108121436D01*
X141171892Y-108137023D01*
X141319000Y-108284131D01*
X141319000Y-108345786D01*
X141377004Y-108485819D01*
X141484181Y-108592996D01*
X141624214Y-108651000D01*
X141775786Y-108651000D01*
X141915819Y-108592996D01*
X142022996Y-108485819D01*
X142081000Y-108345786D01*
X142081000Y-108194214D01*
X142022996Y-108054181D01*
X141915819Y-107947004D01*
X141850633Y-107920003D01*
X141934240Y-107903373D01*
X142005655Y-107855655D01*
X142053373Y-107784240D01*
X142070129Y-107700000D01*
X142070129Y-106700000D01*
X142053373Y-106615760D01*
X142005655Y-106544345D01*
X141934240Y-106496627D01*
X141850000Y-106479871D01*
X140850000Y-106479871D01*
X140765760Y-106496627D01*
X140694345Y-106544345D01*
X140669400Y-106581678D01*
X140669400Y-106557512D01*
X140674873Y-106529999D01*
X140669400Y-106502486D01*
X140653188Y-106420984D01*
X140591436Y-106328564D01*
X140568108Y-106312977D01*
X140287025Y-106031895D01*
X140271436Y-106008564D01*
X140179016Y-105946812D01*
X140097514Y-105930600D01*
X140097513Y-105930600D01*
X140070000Y-105925127D01*
X140042487Y-105930600D01*
X138945732Y-105930600D01*
X138935261Y-105920129D01*
X139850000Y-105920129D01*
X139934240Y-105903373D01*
X140005655Y-105855655D01*
X140053373Y-105784240D01*
X140070129Y-105700000D01*
X140070129Y-105480920D01*
X140090000Y-105484873D01*
X140117513Y-105479400D01*
X140117514Y-105479400D01*
X140199016Y-105463188D01*
X140291436Y-105401436D01*
X140307025Y-105378106D01*
X140365755Y-105319375D01*
X140626500Y-105319375D01*
X140626500Y-105744457D01*
X140660526Y-105826603D01*
X140723397Y-105889474D01*
X140805543Y-105923500D01*
X141230625Y-105923500D01*
X141286500Y-105867625D01*
X141286500Y-105263500D01*
X141413500Y-105263500D01*
X141413500Y-105867625D01*
X141469375Y-105923500D01*
X141894457Y-105923500D01*
X141976603Y-105889474D01*
X142039474Y-105826603D01*
X142073500Y-105744457D01*
X142073500Y-105319375D01*
X142017625Y-105263500D01*
X141413500Y-105263500D01*
X141286500Y-105263500D01*
X140682375Y-105263500D01*
X140626500Y-105319375D01*
X140365755Y-105319375D01*
X140448107Y-105237023D01*
X140471436Y-105221436D01*
X140533188Y-105129016D01*
X140549400Y-105047514D01*
X140554873Y-105020001D01*
X140549400Y-104992488D01*
X140549400Y-104655543D01*
X140626500Y-104655543D01*
X140626500Y-105080625D01*
X140682375Y-105136500D01*
X141286500Y-105136500D01*
X141286500Y-104532375D01*
X141413500Y-104532375D01*
X141413500Y-105136500D01*
X142017625Y-105136500D01*
X142073500Y-105080625D01*
X142073500Y-104655543D01*
X142039474Y-104573397D01*
X141976603Y-104510526D01*
X141894457Y-104476500D01*
X141469375Y-104476500D01*
X141413500Y-104532375D01*
X141286500Y-104532375D01*
X141230625Y-104476500D01*
X140805543Y-104476500D01*
X140723397Y-104510526D01*
X140660526Y-104573397D01*
X140626500Y-104655543D01*
X140549400Y-104655543D01*
X140549400Y-104575730D01*
X141471645Y-103653487D01*
X141494970Y-103637902D01*
X141556722Y-103545482D01*
X141572934Y-103463980D01*
X141578407Y-103436466D01*
X141572934Y-103408952D01*
X141572934Y-103179400D01*
X141940585Y-103179400D01*
X141984181Y-103222996D01*
X142124214Y-103281000D01*
X142185870Y-103281000D01*
X142300601Y-103395732D01*
X142300600Y-109182487D01*
X142295127Y-109210000D01*
X142300600Y-109237513D01*
X142316812Y-109319015D01*
X142370600Y-109399517D01*
X142370601Y-110718600D01*
X140504914Y-110718600D01*
X140476135Y-110649121D01*
X140302879Y-110475865D01*
X140076510Y-110382100D01*
X139831490Y-110382100D01*
X139605121Y-110475865D01*
X139431865Y-110649121D01*
X139338100Y-110875490D01*
X139338100Y-111120510D01*
X139431865Y-111346879D01*
X139605121Y-111520135D01*
X139831490Y-111613900D01*
X140076510Y-111613900D01*
X140302879Y-111520135D01*
X140476135Y-111346879D01*
X140504914Y-111277400D01*
X142370600Y-111277400D01*
X142370601Y-111688996D01*
X142370600Y-111689001D01*
X142370600Y-111690585D01*
X142327004Y-111734181D01*
X142269000Y-111874214D01*
X142269000Y-112025786D01*
X142327004Y-112165819D01*
X142434181Y-112272996D01*
X142574214Y-112331000D01*
X142709100Y-112331000D01*
X142709100Y-112709100D01*
X141069142Y-112709100D01*
X141205588Y-112652582D01*
X141322583Y-112535587D01*
X141385900Y-112382727D01*
X141385900Y-112217271D01*
X141322583Y-112064411D01*
X141205588Y-111947416D01*
X141052728Y-111884099D01*
X140887272Y-111884099D01*
X140734412Y-111947416D01*
X140661229Y-112020599D01*
X140101731Y-112020599D01*
X139271121Y-111189990D01*
X139299900Y-111120510D01*
X139299900Y-110875490D01*
X139206135Y-110649121D01*
X139032879Y-110475865D01*
X138806510Y-110382100D01*
X138561490Y-110382100D01*
X138335121Y-110475865D01*
X138161865Y-110649121D01*
X138068100Y-110875490D01*
X138068100Y-111120510D01*
X138161865Y-111346879D01*
X138335121Y-111520135D01*
X138561490Y-111613900D01*
X138806510Y-111613900D01*
X138875990Y-111585121D01*
X139290772Y-111999904D01*
X139252619Y-111984100D01*
X139047381Y-111984100D01*
X138857766Y-112062641D01*
X138712641Y-112207766D01*
X138634100Y-112397381D01*
X138634100Y-112602619D01*
X138678206Y-112709100D01*
X135290900Y-112709100D01*
X135290900Y-111450444D01*
X137051359Y-111450444D01*
X137093577Y-111547057D01*
X137328083Y-111627883D01*
X137575669Y-111612815D01*
X137734423Y-111547057D01*
X137776641Y-111450444D01*
X137414000Y-111087803D01*
X137051359Y-111450444D01*
X135290900Y-111450444D01*
X135290900Y-111039111D01*
X135295853Y-111021025D01*
X135290900Y-110981737D01*
X135290900Y-110971349D01*
X135287324Y-110953370D01*
X135282119Y-110912083D01*
X136784117Y-110912083D01*
X136799185Y-111159669D01*
X136864943Y-111318423D01*
X136961556Y-111360641D01*
X137324197Y-110998000D01*
X137503803Y-110998000D01*
X137866444Y-111360641D01*
X137963057Y-111318423D01*
X138043883Y-111083917D01*
X138028815Y-110836331D01*
X137963057Y-110677577D01*
X137866444Y-110635359D01*
X137503803Y-110998000D01*
X137324197Y-110998000D01*
X136961556Y-110635359D01*
X136864943Y-110677577D01*
X136784117Y-110912083D01*
X135282119Y-110912083D01*
X135281378Y-110906207D01*
X135276101Y-110896950D01*
X135274022Y-110886496D01*
X135247610Y-110846968D01*
X135224067Y-110805667D01*
X135215646Y-110799132D01*
X135209727Y-110790273D01*
X135170201Y-110763863D01*
X135155720Y-110752624D01*
X135146429Y-110747978D01*
X135113503Y-110725978D01*
X135095111Y-110722320D01*
X134741583Y-110545556D01*
X137051359Y-110545556D01*
X137414000Y-110908197D01*
X137776641Y-110545556D01*
X137734423Y-110448943D01*
X137499917Y-110368117D01*
X137252331Y-110383185D01*
X137093577Y-110448943D01*
X137051359Y-110545556D01*
X134741583Y-110545556D01*
X131290900Y-108820215D01*
X131290900Y-103179785D01*
X135095111Y-101277680D01*
X135113503Y-101274022D01*
X135146429Y-101252022D01*
X135155720Y-101247376D01*
X135170201Y-101236137D01*
X135209727Y-101209727D01*
X135215646Y-101200868D01*
X135224067Y-101194333D01*
X135247610Y-101153032D01*
X135274022Y-101113504D01*
X135276101Y-101103050D01*
X135281378Y-101093793D01*
X135287324Y-101046630D01*
X135290900Y-101028651D01*
X135290900Y-101018263D01*
X135295853Y-100978975D01*
X135290900Y-100960889D01*
X135290900Y-99290900D01*
X135530285Y-99290900D01*
X135497004Y-99324181D01*
G36*
X139761305Y-101879765D02*
X139864235Y-101982695D01*
X139899665Y-101997371D01*
X139891063Y-102052260D01*
X140071500Y-102232697D01*
X140251937Y-102052260D01*
X140243335Y-101997371D01*
X140278765Y-101982695D01*
X140309560Y-101951900D01*
X140520304Y-101951900D01*
X141014134Y-102445731D01*
X141014135Y-102872481D01*
X141008661Y-102900000D01*
X141014134Y-102927514D01*
X141014135Y-103320733D01*
X140091895Y-104242975D01*
X140068564Y-104258564D01*
X140006812Y-104350985D01*
X140002264Y-104373851D01*
X139985127Y-104460000D01*
X139990600Y-104487513D01*
X139990600Y-104534286D01*
X139934240Y-104496627D01*
X139850000Y-104479871D01*
X138850000Y-104479871D01*
X138765760Y-104496627D01*
X138694345Y-104544345D01*
X138646627Y-104615760D01*
X138629871Y-104700000D01*
X138629871Y-105614741D01*
X138619400Y-105604270D01*
X138619400Y-103955545D01*
X138698718Y-103988400D01*
X138844282Y-103988400D01*
X138978765Y-103932695D01*
X139081695Y-103829765D01*
X139096500Y-103794023D01*
X139111305Y-103829765D01*
X139214235Y-103932695D01*
X139348718Y-103988400D01*
X139494282Y-103988400D01*
X139628765Y-103932695D01*
X139731695Y-103829765D01*
X139746500Y-103794023D01*
X139761305Y-103829765D01*
X139864235Y-103932695D01*
X139998718Y-103988400D01*
X140144282Y-103988400D01*
X140278765Y-103932695D01*
X140381695Y-103829765D01*
X140422605Y-103731000D01*
X140445786Y-103731000D01*
X140585819Y-103672996D01*
X140692996Y-103565819D01*
X140751000Y-103425786D01*
X140751000Y-103274214D01*
X140692996Y-103134181D01*
X140585819Y-103027004D01*
X140447746Y-102969812D01*
X140432429Y-102851043D01*
X140412598Y-102803168D01*
X140341740Y-102792063D01*
X140161303Y-102972500D01*
X140175445Y-102986642D01*
X140085642Y-103076445D01*
X140071500Y-103062303D01*
X139891063Y-103242740D01*
X139899665Y-103297629D01*
X139864235Y-103312305D01*
X139761305Y-103415235D01*
X139746500Y-103450977D01*
X139731695Y-103415235D01*
X139628765Y-103312305D01*
X139593023Y-103297500D01*
X139628765Y-103282695D01*
X139731695Y-103179765D01*
X139746371Y-103144335D01*
X139801260Y-103152937D01*
X139981697Y-102972500D01*
X139801260Y-102792063D01*
X139746371Y-102800665D01*
X139731695Y-102765235D01*
X139628765Y-102662305D01*
X139593023Y-102647500D01*
X139628765Y-102632695D01*
X139668720Y-102592740D01*
X139891063Y-102592740D01*
X139899645Y-102647500D01*
X139891063Y-102702260D01*
X140071500Y-102882697D01*
X140251937Y-102702260D01*
X140243355Y-102647500D01*
X140251937Y-102592740D01*
X140071500Y-102412303D01*
X139891063Y-102592740D01*
X139668720Y-102592740D01*
X139731695Y-102529765D01*
X139746371Y-102494335D01*
X139801260Y-102502937D01*
X139981697Y-102322500D01*
X140161303Y-102322500D01*
X140341740Y-102502937D01*
X140412598Y-102491832D01*
X140451434Y-102348410D01*
X140432429Y-102201043D01*
X140412598Y-102153168D01*
X140341740Y-102142063D01*
X140161303Y-102322500D01*
X139981697Y-102322500D01*
X139801260Y-102142063D01*
X139746371Y-102150665D01*
X139731695Y-102115235D01*
X139628765Y-102012305D01*
X139593023Y-101997500D01*
X139628765Y-101982695D01*
X139731695Y-101879765D01*
X139746500Y-101844023D01*
X139761305Y-101879765D01*
X139761305Y-101879765D01*
G37*
X139761305Y-101879765D02*
X139864235Y-101982695D01*
X139899665Y-101997371D01*
X139891063Y-102052260D01*
X140071500Y-102232697D01*
X140251937Y-102052260D01*
X140243335Y-101997371D01*
X140278765Y-101982695D01*
X140309560Y-101951900D01*
X140520304Y-101951900D01*
X141014134Y-102445731D01*
X141014135Y-102872481D01*
X141008661Y-102900000D01*
X141014134Y-102927514D01*
X141014135Y-103320733D01*
X140091895Y-104242975D01*
X140068564Y-104258564D01*
X140006812Y-104350985D01*
X140002264Y-104373851D01*
X139985127Y-104460000D01*
X139990600Y-104487513D01*
X139990600Y-104534286D01*
X139934240Y-104496627D01*
X139850000Y-104479871D01*
X138850000Y-104479871D01*
X138765760Y-104496627D01*
X138694345Y-104544345D01*
X138646627Y-104615760D01*
X138629871Y-104700000D01*
X138629871Y-105614741D01*
X138619400Y-105604270D01*
X138619400Y-103955545D01*
X138698718Y-103988400D01*
X138844282Y-103988400D01*
X138978765Y-103932695D01*
X139081695Y-103829765D01*
X139096500Y-103794023D01*
X139111305Y-103829765D01*
X139214235Y-103932695D01*
X139348718Y-103988400D01*
X139494282Y-103988400D01*
X139628765Y-103932695D01*
X139731695Y-103829765D01*
X139746500Y-103794023D01*
X139761305Y-103829765D01*
X139864235Y-103932695D01*
X139998718Y-103988400D01*
X140144282Y-103988400D01*
X140278765Y-103932695D01*
X140381695Y-103829765D01*
X140422605Y-103731000D01*
X140445786Y-103731000D01*
X140585819Y-103672996D01*
X140692996Y-103565819D01*
X140751000Y-103425786D01*
X140751000Y-103274214D01*
X140692996Y-103134181D01*
X140585819Y-103027004D01*
X140447746Y-102969812D01*
X140432429Y-102851043D01*
X140412598Y-102803168D01*
X140341740Y-102792063D01*
X140161303Y-102972500D01*
X140175445Y-102986642D01*
X140085642Y-103076445D01*
X140071500Y-103062303D01*
X139891063Y-103242740D01*
X139899665Y-103297629D01*
X139864235Y-103312305D01*
X139761305Y-103415235D01*
X139746500Y-103450977D01*
X139731695Y-103415235D01*
X139628765Y-103312305D01*
X139593023Y-103297500D01*
X139628765Y-103282695D01*
X139731695Y-103179765D01*
X139746371Y-103144335D01*
X139801260Y-103152937D01*
X139981697Y-102972500D01*
X139801260Y-102792063D01*
X139746371Y-102800665D01*
X139731695Y-102765235D01*
X139628765Y-102662305D01*
X139593023Y-102647500D01*
X139628765Y-102632695D01*
X139668720Y-102592740D01*
X139891063Y-102592740D01*
X139899645Y-102647500D01*
X139891063Y-102702260D01*
X140071500Y-102882697D01*
X140251937Y-102702260D01*
X140243355Y-102647500D01*
X140251937Y-102592740D01*
X140071500Y-102412303D01*
X139891063Y-102592740D01*
X139668720Y-102592740D01*
X139731695Y-102529765D01*
X139746371Y-102494335D01*
X139801260Y-102502937D01*
X139981697Y-102322500D01*
X140161303Y-102322500D01*
X140341740Y-102502937D01*
X140412598Y-102491832D01*
X140451434Y-102348410D01*
X140432429Y-102201043D01*
X140412598Y-102153168D01*
X140341740Y-102142063D01*
X140161303Y-102322500D01*
X139981697Y-102322500D01*
X139801260Y-102142063D01*
X139746371Y-102150665D01*
X139731695Y-102115235D01*
X139628765Y-102012305D01*
X139593023Y-101997500D01*
X139628765Y-101982695D01*
X139731695Y-101879765D01*
X139746500Y-101844023D01*
X139761305Y-101879765D01*
G36*
X138023500Y-100193500D02*
X138043500Y-100193500D01*
X138043500Y-100320500D01*
X138023500Y-100320500D01*
X138023500Y-100724625D01*
X138079375Y-100780500D01*
X138304457Y-100780500D01*
X138330601Y-100769671D01*
X138330601Y-101364141D01*
X138328765Y-101362305D01*
X138194282Y-101306600D01*
X138048718Y-101306600D01*
X137914235Y-101362305D01*
X137811305Y-101465235D01*
X137755600Y-101599718D01*
X137755600Y-101745282D01*
X137811305Y-101879765D01*
X137914235Y-101982695D01*
X137949977Y-101997500D01*
X137914235Y-102012305D01*
X137811305Y-102115235D01*
X137755600Y-102249718D01*
X137755600Y-102395282D01*
X137811305Y-102529765D01*
X137914235Y-102632695D01*
X137949977Y-102647500D01*
X137914235Y-102662305D01*
X137811305Y-102765235D01*
X137755600Y-102899718D01*
X137755600Y-103026785D01*
X137665819Y-102937004D01*
X137525786Y-102879000D01*
X137374214Y-102879000D01*
X137265096Y-102924198D01*
X137253373Y-102865260D01*
X137210522Y-102801129D01*
X137260000Y-102801129D01*
X137344240Y-102784373D01*
X137415655Y-102736655D01*
X137463373Y-102665240D01*
X137480129Y-102581000D01*
X137480129Y-101981000D01*
X137463373Y-101896760D01*
X137415655Y-101825345D01*
X137349288Y-101781000D01*
X137415655Y-101736655D01*
X137463373Y-101665240D01*
X137480129Y-101581000D01*
X137480129Y-100981000D01*
X137463373Y-100896760D01*
X137415655Y-100825345D01*
X137344240Y-100777627D01*
X137300868Y-100769000D01*
X137344240Y-100760373D01*
X137415655Y-100712655D01*
X137456956Y-100650843D01*
X137470526Y-100683603D01*
X137533397Y-100746474D01*
X137615543Y-100780500D01*
X137840625Y-100780500D01*
X137896500Y-100724625D01*
X137896500Y-100320500D01*
X137876500Y-100320500D01*
X137876500Y-100193500D01*
X137896500Y-100193500D01*
X137896500Y-100173500D01*
X138023500Y-100173500D01*
X138023500Y-100193500D01*
X138023500Y-100193500D01*
G37*
X138023500Y-100193500D02*
X138043500Y-100193500D01*
X138043500Y-100320500D01*
X138023500Y-100320500D01*
X138023500Y-100724625D01*
X138079375Y-100780500D01*
X138304457Y-100780500D01*
X138330601Y-100769671D01*
X138330601Y-101364141D01*
X138328765Y-101362305D01*
X138194282Y-101306600D01*
X138048718Y-101306600D01*
X137914235Y-101362305D01*
X137811305Y-101465235D01*
X137755600Y-101599718D01*
X137755600Y-101745282D01*
X137811305Y-101879765D01*
X137914235Y-101982695D01*
X137949977Y-101997500D01*
X137914235Y-102012305D01*
X137811305Y-102115235D01*
X137755600Y-102249718D01*
X137755600Y-102395282D01*
X137811305Y-102529765D01*
X137914235Y-102632695D01*
X137949977Y-102647500D01*
X137914235Y-102662305D01*
X137811305Y-102765235D01*
X137755600Y-102899718D01*
X137755600Y-103026785D01*
X137665819Y-102937004D01*
X137525786Y-102879000D01*
X137374214Y-102879000D01*
X137265096Y-102924198D01*
X137253373Y-102865260D01*
X137210522Y-102801129D01*
X137260000Y-102801129D01*
X137344240Y-102784373D01*
X137415655Y-102736655D01*
X137463373Y-102665240D01*
X137480129Y-102581000D01*
X137480129Y-101981000D01*
X137463373Y-101896760D01*
X137415655Y-101825345D01*
X137349288Y-101781000D01*
X137415655Y-101736655D01*
X137463373Y-101665240D01*
X137480129Y-101581000D01*
X137480129Y-100981000D01*
X137463373Y-100896760D01*
X137415655Y-100825345D01*
X137344240Y-100777627D01*
X137300868Y-100769000D01*
X137344240Y-100760373D01*
X137415655Y-100712655D01*
X137456956Y-100650843D01*
X137470526Y-100683603D01*
X137533397Y-100746474D01*
X137615543Y-100780500D01*
X137840625Y-100780500D01*
X137896500Y-100724625D01*
X137896500Y-100320500D01*
X137876500Y-100320500D01*
X137876500Y-100193500D01*
X137896500Y-100193500D01*
X137896500Y-100173500D01*
X138023500Y-100173500D01*
X138023500Y-100193500D01*
G36*
X142709101Y-103013970D02*
X142581000Y-102885870D01*
X142581000Y-102824214D01*
X142522996Y-102684181D01*
X142415819Y-102577004D01*
X142275786Y-102519000D01*
X142124214Y-102519000D01*
X141984181Y-102577004D01*
X141940585Y-102620600D01*
X141572934Y-102620600D01*
X141572934Y-102357512D01*
X141578407Y-102329999D01*
X141567571Y-102275524D01*
X141556722Y-102220984D01*
X141494970Y-102128564D01*
X141471642Y-102112977D01*
X141201395Y-101842730D01*
X141206500Y-101837625D01*
X141206500Y-101433500D01*
X141333500Y-101433500D01*
X141333500Y-101837625D01*
X141389375Y-101893500D01*
X141614457Y-101893500D01*
X141696603Y-101859474D01*
X141759474Y-101796603D01*
X141793500Y-101714457D01*
X141793500Y-101489375D01*
X141737625Y-101433500D01*
X141333500Y-101433500D01*
X141206500Y-101433500D01*
X140802375Y-101433500D01*
X140793914Y-101441961D01*
X140745050Y-101409312D01*
X140663548Y-101393100D01*
X140663547Y-101393100D01*
X140636034Y-101387627D01*
X140608521Y-101393100D01*
X140350900Y-101393100D01*
X140350900Y-100635558D01*
X140448000Y-100654873D01*
X140475514Y-100649400D01*
X140749871Y-100649400D01*
X140749871Y-100670000D01*
X140766627Y-100754240D01*
X140814345Y-100825655D01*
X140876157Y-100866956D01*
X140843397Y-100880526D01*
X140780526Y-100943397D01*
X140746500Y-101025543D01*
X140746500Y-101250625D01*
X140802375Y-101306500D01*
X141206500Y-101306500D01*
X141206500Y-101286500D01*
X141333500Y-101286500D01*
X141333500Y-101306500D01*
X141737625Y-101306500D01*
X141793500Y-101250625D01*
X141793500Y-101025543D01*
X141759474Y-100943397D01*
X141696603Y-100880526D01*
X141663843Y-100866956D01*
X141725655Y-100825655D01*
X141773373Y-100754240D01*
X141790129Y-100670000D01*
X141790129Y-100070000D01*
X141773373Y-99985760D01*
X141725655Y-99914345D01*
X141654240Y-99866627D01*
X141570000Y-99849871D01*
X140970000Y-99849871D01*
X140885760Y-99866627D01*
X140814345Y-99914345D01*
X140766627Y-99985760D01*
X140749871Y-100070000D01*
X140749871Y-100090600D01*
X140679935Y-100090600D01*
X140693873Y-100069740D01*
X140710629Y-99985500D01*
X140710629Y-99385500D01*
X140693873Y-99301260D01*
X140686951Y-99290900D01*
X142709101Y-99290900D01*
X142709101Y-103013970D01*
X142709101Y-103013970D01*
G37*
X142709101Y-103013970D02*
X142581000Y-102885870D01*
X142581000Y-102824214D01*
X142522996Y-102684181D01*
X142415819Y-102577004D01*
X142275786Y-102519000D01*
X142124214Y-102519000D01*
X141984181Y-102577004D01*
X141940585Y-102620600D01*
X141572934Y-102620600D01*
X141572934Y-102357512D01*
X141578407Y-102329999D01*
X141567571Y-102275524D01*
X141556722Y-102220984D01*
X141494970Y-102128564D01*
X141471642Y-102112977D01*
X141201395Y-101842730D01*
X141206500Y-101837625D01*
X141206500Y-101433500D01*
X141333500Y-101433500D01*
X141333500Y-101837625D01*
X141389375Y-101893500D01*
X141614457Y-101893500D01*
X141696603Y-101859474D01*
X141759474Y-101796603D01*
X141793500Y-101714457D01*
X141793500Y-101489375D01*
X141737625Y-101433500D01*
X141333500Y-101433500D01*
X141206500Y-101433500D01*
X140802375Y-101433500D01*
X140793914Y-101441961D01*
X140745050Y-101409312D01*
X140663548Y-101393100D01*
X140663547Y-101393100D01*
X140636034Y-101387627D01*
X140608521Y-101393100D01*
X140350900Y-101393100D01*
X140350900Y-100635558D01*
X140448000Y-100654873D01*
X140475514Y-100649400D01*
X140749871Y-100649400D01*
X140749871Y-100670000D01*
X140766627Y-100754240D01*
X140814345Y-100825655D01*
X140876157Y-100866956D01*
X140843397Y-100880526D01*
X140780526Y-100943397D01*
X140746500Y-101025543D01*
X140746500Y-101250625D01*
X140802375Y-101306500D01*
X141206500Y-101306500D01*
X141206500Y-101286500D01*
X141333500Y-101286500D01*
X141333500Y-101306500D01*
X141737625Y-101306500D01*
X141793500Y-101250625D01*
X141793500Y-101025543D01*
X141759474Y-100943397D01*
X141696603Y-100880526D01*
X141663843Y-100866956D01*
X141725655Y-100825655D01*
X141773373Y-100754240D01*
X141790129Y-100670000D01*
X141790129Y-100070000D01*
X141773373Y-99985760D01*
X141725655Y-99914345D01*
X141654240Y-99866627D01*
X141570000Y-99849871D01*
X140970000Y-99849871D01*
X140885760Y-99866627D01*
X140814345Y-99914345D01*
X140766627Y-99985760D01*
X140749871Y-100070000D01*
X140749871Y-100090600D01*
X140679935Y-100090600D01*
X140693873Y-100069740D01*
X140710629Y-99985500D01*
X140710629Y-99385500D01*
X140693873Y-99301260D01*
X140686951Y-99290900D01*
X142709101Y-99290900D01*
X142709101Y-103013970D01*
G04 #@! TD*
M02*
