M48
;DRILL file {KiCad (5.0.0)} date 07/29/18 19:10:10
;FORMAT={3:3/ absolute / metric / suppress trailing zeros}
FMAT,2
METRIC,LZ
T1C0.203
T2C0.254
T3C0.300
T4C0.400
T5C2.000
%
G90
G05
M71
T1
X13545Y-1023
X13559Y-10598
X13582Y-09954
X136332Y-102269
X136385Y-105266
X13745Y-10326
X13758Y-10181
X13834Y-10364
X138385Y-10206
X138385Y-10271
X138659Y-10874
X139807Y-102058
X14037Y-10335
X1417Y-10827
X1422Y-1029
X14265Y-11195
T2
X13525Y-10385
X137414Y-108712
X138176Y-107696
X14097Y-1123
T3
X14193Y-10396
X14055Y-1081
X13612Y-10818
X13736Y-10758
X14077Y-10256
X14225Y-0998
T4
X13915Y-1125
T5
X1335Y-106
T0
M30
